<?xml version="1.0" encoding="UTF-8" standalone="no"?>
<svg width="40px" height="42px" viewBox="0 0 40 42" version="1.1" xmlns="http://www.w3.org/2000/svg" xmlns:xlink="http://www.w3.org/1999/xlink">
    <!-- Generator: Sketch 3.7 (28169) - http://www.bohemiancoding.com/sketch -->
    <title>Page 1</title>
    <desc>Created with Sketch.</desc>
    <defs></defs>
    <g id="Page-1" stroke="none" stroke-width="1" fill="none" fill-rule="evenodd" stroke-linecap="round" stroke-linejoin="round">
        <g id="Desktop-HD" transform="translate(-850.000000, -752.000000)" stroke="#2C3744" stroke-width="2">
            <g id="icon-group" transform="translate(735.000000, 705.000000)">
                <g id="Page-1" transform="translate(116.000000, 48.000000)">
                    <path d="M14.7203636,13.9728485 L3.23066667,13.9728485 C1.7809697,13.9728485 0.606424242,15.1473939 0.606424242,16.5970909 L0.606424242,24.4055758 C0.606424242,25.8540606 1.7809697,27.0298182 3.23066667,27.0298182 L3.97369697,27.0298182 L3.97369697,39.3934545 L13.9773333,39.3934545 L13.9773333,27.0298182 L14.7203636,27.0298182 C16.1700606,27.0298182 17.3446061,25.8540606 17.3446061,24.4055758 L17.3446061,16.5970909 C17.3446061,15.1473939 16.1700606,13.9728485 14.7203636,13.9728485 L14.7203636,13.9728485 Z" id="Stroke-1"></path>
                    <path d="M8.97539394,11.3484848 C11.9414545,11.3484848 14.346303,8.94363636 14.346303,5.97757576 C14.346303,3.01030303 11.9414545,0.605454545 8.97539394,0.605454545 C6.00933333,0.605454545 3.60448485,3.01030303 3.60448485,5.97757576 C3.60448485,8.94363636 6.00933333,11.3484848 8.97539394,11.3484848 L8.97539394,11.3484848 Z" id="Stroke-3"></path>
                    <path d="M35.0951515,13.9728485 L23.6054545,13.9728485 C22.1557576,13.9728485 20.9812121,15.1473939 20.9812121,16.5970909 L20.9812121,24.4055758 C20.9812121,25.8540606 22.1557576,27.0298182 23.6054545,27.0298182 L24.3484848,27.0298182 L24.3484848,39.3934545 L34.3521212,39.3934545 L34.3521212,27.0298182 L35.0951515,27.0298182 C36.5448485,27.0298182 37.7193939,25.8540606 37.7193939,24.4055758 L37.7193939,16.5970909 C37.7193939,15.1473939 36.5448485,13.9728485 35.0951515,13.9728485 L35.0951515,13.9728485 Z" id="Stroke-5"></path>
                    <path d="M29.3501818,11.3484848 C32.3162424,11.3484848 34.7210909,8.94363636 34.7210909,5.97757576 C34.7210909,3.01030303 32.3162424,0.605454545 29.3501818,0.605454545 C26.3841212,0.605454545 23.9792727,3.01030303 23.9792727,5.97757576 C23.9792727,8.94363636 26.3841212,11.3484848 29.3501818,11.3484848 L29.3501818,11.3484848 Z" id="Stroke-7"></path>
                </g>
            </g>
        </g>
    </g>
</svg>