<?xml version="1.0" encoding="UTF-8" standalone="no"?>
<svg width="49px" height="41px" viewBox="0 0 49 41" version="1.1" xmlns="http://www.w3.org/2000/svg" xmlns:xlink="http://www.w3.org/1999/xlink">
    <!-- Generator: Sketch 3.7 (28169) - http://www.bohemiancoding.com/sketch -->
    <title>Page 1</title>
    <desc>Created with Sketch.</desc>
    <defs></defs>
    <g id="Page-1" stroke="none" stroke-width="1" fill="none" fill-rule="evenodd" stroke-linecap="round" stroke-linejoin="round">
        <g id="Desktop-HD" transform="translate(-1145.000000, -1172.000000)" stroke="#2C3744" stroke-width="2">
            <g id="icon-group" transform="translate(1035.000000, 1125.000000)">
                <g id="Page-1" transform="translate(111.000000, 48.000000)">
                    <polyline id="Stroke-1" points="6.43128571 37.9628571 2.11414286 29.9042857 44.9712857 29.74 40.717 37.83"></polyline>
                    <path d="M0.714285714,37.2705714 C4.52142857,37.2562857 4.52714286,38.6848571 8.33428571,38.6691429 C12.1428571,38.6548571 12.1385714,37.2262857 15.9471429,37.212 C19.7528571,37.1977143 19.7585714,38.6262857 23.5642857,38.6105714 C27.3742857,38.5962857 27.3685714,37.1677143 31.1785714,37.1534286 C34.9914286,37.1377143 34.9971429,38.5662857 38.8085714,38.552 C42.6214286,38.5377143 42.6157143,37.1091429 46.4285714,37.0934286" id="Stroke-3"></path>
                    <path d="M31.1515714,29.7927143 L31.0387143,0.714142857" id="Stroke-5"></path>
                    <path d="M31.0511429,3.80142857 L31.1325714,25.0128571 C35.254,23.2471429 38.134,19.1471429 38.1154286,14.38 C38.0968571,9.61428571 35.1854286,5.53571429 31.0511429,3.80142857 L31.0511429,3.80142857 Z" id="Stroke-7"></path>
                    <polygon id="Stroke-9" points="28.5511429 3.811 28.6325714 25.0224286 6.38114286 25.1095714"></polygon>
                    <path d="M31.0392857,0 L28.5392857,0.014" id="Stroke-11"></path>
                </g>
            </g>
        </g>
    </g>
</svg>