<?xml version="1.0" encoding="UTF-8" standalone="no"?>
<svg width="47px" height="41px" viewBox="0 0 47 41" version="1.1" xmlns="http://www.w3.org/2000/svg" xmlns:xlink="http://www.w3.org/1999/xlink">
    <!-- Generator: Sketch 3.6.1 (26313) - http://www.bohemiancoding.com/sketch -->
    <title>Page 1</title>
    <desc>Created with Sketch.</desc>
    <defs>
        <path id="path-1" d="M0,38.7769655 L45.5172414,38.7769655 L45.5172414,0.000413793103 L0,0.000413793103 L0,38.7769655 Z"></path>
    </defs>
    <g id="Page-1" stroke="none" stroke-width="1" fill="none" fill-rule="evenodd">
        <g id="Desktop-HD" transform="translate(-546.000000, -544.000000)">
            <g id="icon-group" transform="translate(435.000000, 495.000000)">
                <g id="Page-1" transform="translate(112.000000, 50.000000)">
                    <path d="M44.8275862,35.3286897 C44.8275862,36.845931 43.5862069,38.0873103 42.0689655,38.0873103 L3.44827586,38.0873103 C1.93103448,38.0873103 0.689655172,36.845931 0.689655172,35.3286897 L0.689655172,9.1217931 C0.689655172,7.60455172 1.93103448,6.36317241 3.44827586,6.36317241 L42.0689655,6.36317241 C43.5862069,6.36317241 44.8275862,7.60455172 44.8275862,9.1217931 L44.8275862,35.3286897 L44.8275862,35.3286897 Z" id="Stroke-1" stroke="#2C3744" stroke-width="2" stroke-linecap="round" stroke-linejoin="round"></path>
                    <path d="M29.4827586,4.98386207 C29.4827586,5.74248276 28.862069,6.36317241 28.1034483,6.36317241 L17.4137931,6.36317241 C16.6551724,6.36317241 16.0344828,5.74248276 16.0344828,4.98386207 L16.0344828,2.06937931 C16.0344828,1.31075862 16.6551724,0.690068966 17.4137931,0.690068966 L28.1034483,0.690068966 C28.862069,0.690068966 29.4827586,1.31075862 29.4827586,2.06937931 L29.4827586,4.98386207 L29.4827586,4.98386207 Z" id="Stroke-3" stroke="#2C3744" stroke-width="2" stroke-linecap="round" stroke-linejoin="round"></path>
                    <mask id="mask-2" fill="white">
                        <use xlink:href="#path-1"></use>
                    </mask>
                    <g id="Clip-6"></g>
                    <path d="M20.6896552,26.7245517 L24.8275862,26.7245517 L24.8275862,20.0004138 L20.6896552,20.0004138 L20.6896552,26.7245517 Z" id="Stroke-5" stroke="#2C3744" stroke-width="2" stroke-linecap="round" stroke-linejoin="round" mask="url(#mask-2)"></path>
                    <path d="M24.8275862,23.362069 L44.8275862,17.8448276" id="Stroke-7" stroke="#2C3744" stroke-width="2" stroke-linecap="round" stroke-linejoin="round" mask="url(#mask-2)"></path>
                    <path d="M20.6896552,23.362069 L0.689655172,17.8448276" id="Stroke-8" stroke="#2C3744" stroke-width="2" stroke-linecap="round" stroke-linejoin="round" mask="url(#mask-2)"></path>
                </g>
            </g>
        </g>
    </g>
</svg>