<svg id="Layer_1" data-name="Layer 1" xmlns="http://www.w3.org/2000/svg" viewBox="0 0 34 33.9"><defs><style>.cls-1{fill:none;stroke:#2a7ddf;stroke-miterlimit:10;}.cls-2{fill:#3392e6;}</style></defs><title>icon-news</title><path class="cls-1" d="M460.6,333.2h7.6a3,3,0,0,0,3-3V300.3" transform="translate(-437.7 -299.8)"/><path class="cls-1" d="M442.8,300.3v29.9c0,1.6-1,3-2.3,3s-2.3-1.4-2.3-3V303.4h4.6" transform="translate(-437.7 -299.8)"/><line class="cls-1" x1="2.6" y1="33.4" x2="22.9" y2="33.4"/><line class="cls-1" x1="5.1" y1="0.5" x2="33.5" y2="0.5"/><line class="cls-1" x1="9.1" y1="17.3" x2="29.6" y2="17.3"/><line class="cls-1" x1="9.1" y1="22.3" x2="29.6" y2="22.3"/><line class="cls-1" x1="9.1" y1="27.3" x2="20.9" y2="27.3"/><path class="cls-2" d="M446.51,306.43h0.87l2.72,4.4v-4.4h0.7v5.45H450l-2.76-4.39v4.39h-0.7v-5.45Z" transform="translate(-437.7 -299.8)"/><path class="cls-2" d="M452.06,306.43h4v0.67h-3.23v1.65h3v0.63h-3v1.85h3.29v0.65h-4v-5.45Z" transform="translate(-437.7 -299.8)"/><path class="cls-2" d="M457.42,306.43l1,4.42,1.23-4.42h0.8l1.23,4.43,1-4.43h0.81l-1.43,5.45h-0.77l-1.26-4.52-1.26,4.52H458l-1.42-5.45h0.8Z" transform="translate(-437.7 -299.8)"/><path class="cls-2" d="M464.71,310.12a1.53,1.53,0,0,0,.21.75,1.37,1.37,0,0,0,1.25.54,2.11,2.11,0,0,0,.73-0.12,0.83,0.83,0,0,0,.64-0.82,0.72,0.72,0,0,0-.27-0.63,2.69,2.69,0,0,0-.85-0.32l-0.71-.17a3.14,3.14,0,0,1-1-.36,1.15,1.15,0,0,1-.5-1,1.59,1.59,0,0,1,.49-1.21,2,2,0,0,1,1.4-.47,2.38,2.38,0,0,1,1.42.41,1.51,1.51,0,0,1,.58,1.32h-0.69a1.41,1.41,0,0,0-.23-0.67,1.3,1.3,0,0,0-1.1-.43,1.24,1.24,0,0,0-.9.27,0.88,0.88,0,0,0-.27.64,0.63,0.63,0,0,0,.32.59,4.72,4.72,0,0,0,1,.3l0.74,0.17a2.25,2.25,0,0,1,.83.34,1.31,1.31,0,0,1,.5,1.11,1.4,1.4,0,0,1-.64,1.29,2.84,2.84,0,0,1-1.49.39,2.2,2.2,0,0,1-1.55-.52,1.77,1.77,0,0,1-.55-1.4h0.69Z" transform="translate(-437.7 -299.8)"/></svg>