<?xml version="1.0" encoding="UTF-8" standalone="no"?>
<svg width="42px" height="42px" viewBox="0 0 42 42" version="1.1" xmlns="http://www.w3.org/2000/svg" xmlns:xlink="http://www.w3.org/1999/xlink">
    <!-- Generator: Sketch 3.7 (28169) - http://www.bohemiancoding.com/sketch -->
    <title>Page 1</title>
    <desc>Created with Sketch.</desc>
    <defs></defs>
    <g id="Page-1" stroke="none" stroke-width="1" fill="none" fill-rule="evenodd" stroke-linecap="round" stroke-linejoin="round">
        <g id="Desktop-HD" transform="translate(-849.000000, -964.000000)" stroke="#2C3744" stroke-width="2">
            <g id="Page-1" transform="translate(850.000000, 965.000000)">
                <path d="M28.6768649,20.0282162 C28.6768649,24.8044324 24.8044324,28.6768649 20.0282162,28.6768649 C15.252,28.6768649 11.3795676,24.8044324 11.3795676,20.0282162 C11.3795676,15.252 15.252,11.3795676 20.0282162,11.3795676 C24.8044324,11.3795676 28.6768649,15.252 28.6768649,20.0282162 L28.6768649,20.0282162 Z" id="Stroke-1"></path>
                <path d="M17.1903784,7.25221622 C17.1903784,3.54518919 20.0282162,0.540864865 20.0282162,0.540864865 C20.0282162,0.540864865 22.8660541,3.54518919 22.8660541,7.25221622" id="Stroke-3"></path>
                <path d="M22.8660541,32.8042162 C22.8660541,36.5112432 20.0282162,39.5155676 20.0282162,39.5155676 C20.0282162,39.5155676 17.1903784,36.5112432 17.1903784,32.8042162" id="Stroke-5"></path>
                <path d="M8.98756757,13.0008649 C6.36702703,10.3803243 6.24810811,6.24843243 6.24810811,6.24843243 C6.24810811,6.24843243 10.38,6.36627027 13.0005405,8.98789189" id="Stroke-7"></path>
                <path d="M31.0688649,27.0555676 C33.6894054,29.6761081 33.8083243,33.808 33.8083243,33.808 C33.8083243,33.808 29.6764324,33.6901622 27.0558919,31.0685405" id="Stroke-9"></path>
                <path d="M7.25221622,22.8660541 C3.54518919,22.8660541 0.540864865,20.0282162 0.540864865,20.0282162 C0.540864865,20.0282162 3.54518919,17.1903784 7.25221622,17.1903784" id="Stroke-11"></path>
                <path d="M32.8042162,17.1903784 C36.5112432,17.1903784 39.5155676,20.0282162 39.5155676,20.0282162 C39.5155676,20.0282162 36.5112432,22.8660541 32.8042162,22.8660541" id="Stroke-13"></path>
                <path d="M13.0008649,31.0688649 C10.3803243,33.6894054 6.24843243,33.8083243 6.24843243,33.8083243 C6.24843243,33.8083243 6.36627027,29.6764324 8.98789189,27.0558919" id="Stroke-15"></path>
                <path d="M27.0555676,8.98756757 C29.6761081,6.36702703 33.808,6.24810811 33.808,6.24810811 C33.808,6.24810811 33.6901622,10.38 31.0685405,13.0005405" id="Stroke-17"></path>
            </g>
        </g>
    </g>
</svg>