<?xml version="1.0" encoding="UTF-8" standalone="no"?>
<svg width="23px" height="42px" viewBox="0 0 23 42" version="1.1" xmlns="http://www.w3.org/2000/svg" xmlns:xlink="http://www.w3.org/1999/xlink">
    <!-- Generator: Sketch 3.7 (28169) - http://www.bohemiancoding.com/sketch -->
    <title>Page 1</title>
    <desc>Created with Sketch.</desc>
    <defs></defs>
    <g id="Page-1" stroke="none" stroke-width="1" fill="none" fill-rule="evenodd" stroke-linecap="round" stroke-linejoin="round">
        <g id="Desktop-HD" transform="translate(-1158.000000, -962.000000)" stroke="#2C3744" stroke-width="2">
            <g id="icon-group" transform="translate(1035.000000, 915.000000)">
                <g id="Page-1" transform="translate(124.000000, 48.000000)">
                    <path d="M17.4538182,39.3939394 L3.77260606,39.3939394 C2.02351515,39.3939394 0.606545455,37.9757576 0.606545455,36.2278788 L0.606545455,15.3309091 L4.94109091,8.57212121 L16.2853333,8.57212121 L20.6198788,15.3309091 L20.6198788,36.2278788 C20.6198788,37.9757576 19.2029091,39.3939394 17.4538182,39.3939394 L17.4538182,39.3939394 Z" id="Stroke-1"></path>
                    <path d="M16.2985455,8.57175758 L4.92763636,8.57175758 C4.00157576,8.57175758 3.25127273,7.82145455 3.25127273,6.89539394 L3.25127273,2.28327273 C3.25127273,1.35721212 4.00157576,0.60569697 4.92763636,0.60569697 L16.2985455,0.60569697 C17.2246061,0.60569697 17.9749091,1.35721212 17.9749091,2.28327273 L17.9749091,6.89539394 C17.9749091,7.82145455 17.2246061,8.57175758 16.2985455,8.57175758 L16.2985455,8.57175758 Z" id="Stroke-3"></path>
                    <polygon id="Stroke-5" points="16.4107879 24.8598788 12.0071515 24.8598788 12.0071515 20.4562424 9.21927273 20.4562424 9.21927273 24.8598788 4.81563636 24.8598788 4.81563636 27.6465455 9.21927273 27.6465455 9.21927273 32.0513939 12.0071515 32.0513939 12.0071515 27.6465455 16.4107879 27.6465455"></polygon>
                </g>
            </g>
        </g>
    </g>
</svg>