<?xml version="1.0" encoding="UTF-8" standalone="no"?>
<svg width="59px" height="42px" viewBox="0 0 59 42" version="1.1" xmlns="http://www.w3.org/2000/svg" xmlns:xlink="http://www.w3.org/1999/xlink">
    <!-- Generator: Sketch 3.6.1 (26313) - http://www.bohemiancoding.com/sketch -->
    <title>Page 1</title>
    <desc>Created with Sketch.</desc>
    <defs></defs>
    <g id="Page-1" stroke="none" stroke-width="1" fill="none" fill-rule="evenodd" stroke-linecap="round" stroke-linejoin="round">
        <g id="Desktop-HD" transform="translate(-541.000000, -542.000000)" stroke="#2C3744" stroke-width="2">
            <g id="icon-group" transform="translate(533.000000, 543.000000)">
                <g id="Page-1" transform="translate(9.000000, 0.000000)">
                    <path d="M29.9545806,30.2584516 C24.6887742,28.3384516 23.4332903,26.7203871 23.4332903,23.252 C23.4332903,21.1732903 24.6113548,21.8532903 25.3184516,18.0403871 C25.6113548,16.4610323 27.032,18.015871 27.3042581,14.4094194 C27.3042581,12.9707097 26.5287742,12.612 26.5287742,12.612 C26.8087742,11.1332903 27.4590968,5.67909677 25.555871,3.46619355 C24.2732903,1.972 22.3223226,1.91393548 21.8513548,1.92425806 C21.8087742,1.91135484 21.7649032,1.90103226 21.7197419,1.88941935 C21.188129,0.974580645 17.9674839,-0.195741935 13.7003871,1.53329032 C9.272,3.32296774 9.3403871,7.19909677 9.86554839,10.4042581 C10.032,11.5810323 10.2229677,12.612 10.2229677,12.612 C10.2229677,12.612 9.44748387,12.9707097 9.44748387,14.4094194 C9.71845161,18.015871 11.1403871,16.4610323 11.432,18.0403871 C12.1378065,21.8532903 13.3184516,21.1732903 13.3184516,23.252 C13.3184516,26.7203871 12.0629677,28.3384516 6.79716129,30.2584516 C1.51458065,32.1810323 0.644903226,34.1474839 0.644903226,35.4855484 L0.644903226,39.9810323 L18.5894194,39.9810323 L36.1055484,39.9810323 L36.1055484,35.4855484 C36.1055484,34.1474839 35.235871,32.1810323 29.9545806,30.2584516 L29.9545806,30.2584516 Z" id="Stroke-1"></path>
                    <path d="M40.6350968,39.9812903 L56.1783226,39.9812903 L56.1783226,38.3129032 C56.1783226,37.0483871 55.3563871,35.1954839 50.3705806,33.3787097 C46.6157419,32.0096774 45.0234839,30.8032258 44.4647742,28.8870968 L44.4725161,28.8870968 C49.8196129,27.7812903 50.9692903,24.8858065 51.1731613,24.1774194 C51.1731613,24.1722581 51.1757419,24.1696774 51.1757419,24.1696774 C51.1860645,24.1193548 51.1976774,24.0845161 51.2028387,24.0587097 C51.2028387,24.0509677 51.2028387,24.0509677 51.2054194,24.0458065 C51.208,24.0264516 51.2105806,24.0135484 51.2105806,24.0135484 C51.2105806,24.0135484 48.0376774,21.9464516 48.0376774,16.6367742 C48.0376774,11.3322581 47.0415484,6.47548387 39.7886452,6.47548387 C39.3770323,6.47548387 38.9899355,6.49612903 38.6170323,6.52580645 C38.5009032,6.53870968 38.3873548,6.5516129 38.2738065,6.56451613 C38.0234839,6.5916129 37.7783226,6.62645161 37.5447742,6.66774194 C37.4260645,6.68967742 37.3112258,6.71290323 37.1963871,6.73483871 C36.9692903,6.78258065 36.7525161,6.84064516 36.5447742,6.90387097 C36.4531613,6.93225806 36.3563871,6.95677419 36.2660645,6.98516129 C35.9899355,7.07806452 35.7254194,7.18387097 35.4789677,7.30258065 C35.404129,7.33741935 35.3409032,7.37741935 35.2686452,7.41612903 C35.0970323,7.50645161 34.928,7.59935484 34.7705806,7.70258065 C34.6789677,7.76322581 34.5886452,7.82903226 34.4996129,7.89225806 C34.3783226,7.98 34.2621935,8.07290323 34.1525161,8.16709677 C34.0634839,8.24193548 33.9757419,8.31806452 33.8931613,8.39806452 C33.7912258,8.49483871 33.6983226,8.59548387 33.608,8.69870968 C33.5254194,8.7916129 33.4415484,8.88193548 33.3628387,8.97870968 C33.2350968,9.14516129 33.1138065,9.31290323 33.0002581,9.48967742 C32.9215484,9.61354839 32.851871,9.74129032 32.7809032,9.87032258 C32.7370323,9.95806452 32.688,10.0393548 32.6467097,10.1270968 C32.5770323,10.2664516 32.5112258,10.4096774 32.4505806,10.5554839 C32.4196129,10.6290323 32.3886452,10.7051613 32.3602581,10.7825806 C32.2970323,10.943871 32.2363871,11.1077419 32.1821935,11.2793548 C32.1757419,11.2974194 32.1705806,11.3193548 32.1654194,11.3374194 C31.9692903,11.9722581 31.8273548,12.6470968 31.7344516,13.3554839 C31.7344516,13.3554839 31.731871,13.3554839 31.731871,13.3580645 C31.6015484,14.3206452 31.5499355,15.3387097 31.5434839,16.3774194 C31.5434839,16.4625806 31.5396129,16.5516129 31.5396129,16.6367742 C31.5396129,21.9464516 28.3667097,24.0135484 28.3667097,24.0135484 C28.3667097,24.0135484 28.3770323,24.063871 28.4002581,24.1477419" id="Stroke-3"></path>
                </g>
            </g>
        </g>
    </g>
</svg>