<?xml version="1.0" encoding="UTF-8" standalone="no"?>
<svg width="37px" height="41px" viewBox="0 0 37 41" version="1.1" xmlns="http://www.w3.org/2000/svg" xmlns:xlink="http://www.w3.org/1999/xlink">
    <!-- Generator: Sketch 3.6.1 (26313) - http://www.bohemiancoding.com/sketch -->
    <title>Page 1</title>
    <desc>Created with Sketch.</desc>
    <defs></defs>
    <g id="Page-1" stroke="none" stroke-width="1" fill="none" fill-rule="evenodd" stroke-linecap="round" stroke-linejoin="round">
        <g id="Desktop-HD" transform="translate(-851.000000, -543.000000)" stroke="#2C3744" stroke-width="2">
            <g id="icon-group" transform="translate(827.000000, 543.000000)">
                <path d="M53.8972924,30.410764 C48.7054441,28.5202869 47.4677326,26.9240993 47.4677326,23.5064656 C47.4677326,21.4537054 48.63278,22.1246371 49.327933,18.3666932 C49.6161672,16.8080488 51.0161617,18.3400497 51.2862299,14.7831431 C51.2862299,13.3613494 50.523257,13.0113507 50.523257,13.0113507 C50.7957473,11.5495917 51.4388244,6.17487216 49.5628802,3.99252771 C48.2961031,2.51865802 46.3741382,2.46415996 45.9115103,2.4738485 C45.8654897,2.46173782 45.8243134,2.44962714 45.7795039,2.43751646 C45.2539004,1.53648191 42.0772692,0.382334152 37.8724412,2.08509569 C33.5065413,3.85204383 33.571939,7.67538535 34.0878539,10.8350616 C34.2537702,11.9964758 34.4402747,13.0113507 34.4402747,13.0113507 C34.4402747,13.0113507 33.6773019,13.3613494 33.6773019,14.7831431 C33.9461589,18.3400497 35.3485756,16.8080488 35.6355987,18.3666932 C36.3295407,22.1246371 37.4957991,21.4537054 37.4957991,23.5064656 C37.4957991,26.9240993 36.2592987,28.5202869 31.0662394,30.410764 C25.8538029,32.3097185 25,34.2450051 25,35.5674913 L25,40 L42.6924917,40 L59.9647428,40 L59.9647428,35.5674913 C59.9647428,34.2450051 59.1097288,32.3097185 53.8972924,30.410764 L53.8972924,30.410764 Z" id="Page-1"></path>
            </g>
        </g>
    </g>
</svg>