<?xml version="1.0" encoding="UTF-8" standalone="no"?>
<svg width="46px" height="41px" viewBox="0 0 46 41" version="1.1" xmlns="http://www.w3.org/2000/svg" xmlns:xlink="http://www.w3.org/1999/xlink">
    <!-- Generator: Sketch 3.7 (28169) - http://www.bohemiancoding.com/sketch -->
    <title>Page 1</title>
    <desc>Created with Sketch.</desc>
    <defs></defs>
    <g id="Page-1" stroke="none" stroke-width="1" fill="none" fill-rule="evenodd" stroke-linecap="round" stroke-linejoin="round">
        <g id="Desktop-HD" transform="translate(-247.000000, -964.000000)" stroke="#2C3744" stroke-width="2">
            <g id="icon-group" transform="translate(135.000000, 915.000000)">
                <g id="Page-1" transform="translate(113.000000, 50.000000)">
                    <path d="M43.3333333,28.6665333 C43.3333333,30.1332 42.1333333,31.3332 40.6666667,31.3332 L3.33333333,31.3332 C1.86666667,31.3332 0.666666667,30.1332 0.666666667,28.6665333 L0.666666667,3.3332 C0.666666667,1.86653333 1.86666667,0.666533333 3.33333333,0.666533333 L40.6666667,0.666533333 C42.1333333,0.666533333 43.3333333,1.86653333 43.3333333,3.3332 L43.3333333,28.6665333 L43.3333333,28.6665333 Z" id="Stroke-1"></path>
                    <path d="M39.3330667,24.6658667 C39.3330667,25.3992 38.7330667,25.9992 37.9997333,25.9992 L5.99973333,25.9992 C5.2664,25.9992 4.6664,25.3992 4.6664,24.6658667 L4.6664,5.9992 C4.6664,5.26586667 5.2664,4.66586667 5.99973333,4.66586667 L37.9997333,4.66586667 C38.7330667,4.66586667 39.3330667,5.26586667 39.3330667,5.9992 L39.3330667,24.6658667 L39.3330667,24.6658667 Z" id="Stroke-3"></path>
                    <g id="Group-7" transform="translate(13.333333, 38.040933)">
                        <path d="M0.166666667,0 L17.1666667,0" id="Stroke-5"></path>
                    </g>
                    <path d="M19.2222667,31.3332 L16.2222667,37.7078667" id="Stroke-8"></path>
                    <path d="M24.7778667,31.3332 L27.7778667,37.7078667" id="Stroke-10"></path>
                </g>
            </g>
        </g>
    </g>
</svg>