<?xml version="1.0" encoding="UTF-8" standalone="no"?>
<svg width="34px" height="42px" viewBox="0 0 34 42" version="1.1" xmlns="http://www.w3.org/2000/svg" xmlns:xlink="http://www.w3.org/1999/xlink">
    <!-- Generator: Sketch 3.6.1 (26313) - http://www.bohemiancoding.com/sketch -->
    <title>Page 1</title>
    <desc>Created with Sketch.</desc>
    <defs></defs>
    <g id="Page-1" stroke="none" stroke-width="1" fill="none" fill-rule="evenodd" stroke-linecap="round" stroke-linejoin="round">
        <g id="Desktop-HD" transform="translate(-853.000000, -542.000000)" stroke="#2C3744" stroke-width="2">
            <g id="icon-group" transform="translate(735.000000, 495.000000)">
                <g id="Page-1" transform="translate(119.000000, 48.000000)">
                    <path d="M16.2135758,13.7340606 C14.2293333,13.7340606 11.7820606,10.8152727 7.55054545,12.0055758 C3.31781818,13.1958788 0.60630303,16.6443636 0.60630303,24.8443636 C0.60630303,33.0455758 6.95539394,39.3934545 10.6584242,39.3934545 C14.3614545,39.3934545 14.4935758,38.2031515 16.2135758,38.2031515" id="Stroke-1"></path>
                    <path d="M16.2135758,13.7340606 C18.1978182,13.7340606 20.6450909,10.8152727 24.8766061,12.0055758 C29.1093333,13.1958788 31.8208485,16.6443636 31.8208485,24.8443636 C31.8208485,33.0455758 25.4717576,39.3934545 21.7687273,39.3934545 C18.065697,39.3934545 17.9335758,38.2031515 16.2135758,38.2031515" id="Stroke-3"></path>
                    <path d="M23.8518788,7.62666667 C21.2688485,10.209697 16.8373333,9.96484848 16.8373333,9.96484848 C16.8373333,9.96484848 16.5924848,5.53333333 19.1755152,2.95030303 C21.7585455,0.367272727 26.1900606,0.612121212 26.1900606,0.612121212 C26.1900606,0.612121212 26.4349091,5.04363636 23.8518788,7.62666667 L23.8518788,7.62666667 Z" id="Stroke-5"></path>
                    <path d="M11.452,2.70860606 C11.452,2.70860606 16.0059394,5.53406061 16.8374545,9.96436364" id="Stroke-7"></path>
                    <path d="M8.40981818,16.1149091 C8.40981818,16.1149091 5.7649697,18.3633939 5.36739394,22.0664242" id="Stroke-9"></path>
                </g>
            </g>
        </g>
    </g>
</svg>