<?xml version="1.0" encoding="UTF-8" standalone="no"?>
<svg width="34px" height="42px" viewBox="0 0 34 42" version="1.1" xmlns="http://www.w3.org/2000/svg" xmlns:xlink="http://www.w3.org/1999/xlink">
    <!-- Generator: Sketch 3.7 (28169) - http://www.bohemiancoding.com/sketch -->
    <title>Page 1</title>
    <desc>Created with Sketch.</desc>
    <defs></defs>
    <g id="Page-1" stroke="none" stroke-width="1" fill="none" fill-rule="evenodd" stroke-linecap="round" stroke-linejoin="round">
        <g id="Desktop-HD" transform="translate(-253.000000, -1174.000000)" stroke="#2C3744" stroke-width="2">
            <g id="icon-group" transform="translate(135.000000, 1125.000000)">
                <g id="Page-1" transform="translate(119.000000, 50.000000)">
                    <path d="M0.606060606,28.5322424 L0.606060606,37.3249697 C0.606060606,38.658303 1.6969697,39.7492121 3.03030303,39.7492121 L29.5309091,39.7492121 C30.8642424,39.7492121 31.9551515,38.658303 31.9551515,37.3249697 L31.9551515,12.9734545 L31.9551515,8.1249697 L31.9551515,3.03042424 C31.9551515,1.69709091 30.8642424,0.606181818 29.5309091,0.606181818 L24.6993939,0.606181818 L19.8509091,0.606181818 L3.03030303,0.606181818 C1.6969697,0.606181818 0.606060606,1.69709091 0.606060606,3.03042424 L0.606060606,28.3201212" id="Stroke-1"></path>
                    <path d="M13.9393939,12 L24.6824242,12" id="Stroke-3"></path>
                    <path d="M7.87878788,12 L8.80848485,12" id="Stroke-5"></path>
                    <path d="M13.9393939,20 L24.6824242,20" id="Stroke-7"></path>
                    <path d="M7.87878788,20 L8.80848485,20" id="Stroke-9"></path>
                    <path d="M13.9393939,27 L24.6824242,27" id="Stroke-11"></path>
                    <path d="M7.87878788,27 L8.80848485,27" id="Stroke-13"></path>
                </g>
            </g>
        </g>
    </g>
</svg>