<?xml version="1.0" encoding="UTF-8" standalone="no"?>
<svg width="62px" height="39px" viewBox="0 0 62 39" version="1.1" xmlns="http://www.w3.org/2000/svg" xmlns:xlink="http://www.w3.org/1999/xlink">
    <!-- Generator: Sketch 3.7 (28169) - http://www.bohemiancoding.com/sketch -->
    <title>Page 1</title>
    <desc>Created with Sketch.</desc>
    <defs></defs>
    <g id="Page-1" stroke="none" stroke-width="1" fill="none" fill-rule="evenodd" stroke-linecap="round" stroke-linejoin="round">
        <g id="Desktop-HD" transform="translate(-539.000000, -1174.000000)" stroke="#2C3744" stroke-width="2">
            <g id="icon-group" transform="translate(435.000000, 1125.000000)">
                <g id="Page-1" transform="translate(105.000000, 50.000000)">
                    <path d="M32.3783636,5.24581818 L40.2801818,9.80763636" id="Stroke-1"></path>
                    <path d="M19.7572727,9.78636364 L27.5463636,5.29" id="Stroke-2"></path>
                    <path d="M17,23.1721818 L17,14.0230909" id="Stroke-3"></path>
                    <path d="M27.5361818,32.106 L19.6998182,27.5823636" id="Stroke-4"></path>
                    <path d="M40.3881818,27.5309091 L32.4227273,32.1290909" id="Stroke-5"></path>
                    <g id="Group-28" transform="translate(0.000000, 0.401091)">
                        <path d="M30,35.9136364 C28.4618182,35.9136364 27.2127273,34.6663636 27.2127273,33.1263636 C27.2127273,31.5881818 28.4618182,30.3409091 30,30.3409091 C31.5381818,30.3409091 32.7872727,31.5881818 32.7872727,33.1263636 C32.7872727,34.6663636 31.5381818,35.9136364 30,35.9136364 L30,35.9136364 Z" id="Stroke-6"></path>
                        <path d="M17.1587273,28.4998182 C15.6205455,28.4998182 14.3714545,27.2525455 14.3714545,25.7125455 C14.3714545,24.1743636 15.6205455,22.9270909 17.1587273,22.9270909 C18.6969091,22.9270909 19.946,24.1743636 19.946,25.7125455 C19.946,27.2525455 18.6969091,28.4998182 17.1587273,28.4998182 L17.1587273,28.4998182 Z" id="Stroke-8"></path>
                        <path d="M17.1587273,13.672 C15.6205455,13.672 14.3714545,12.4247273 14.3714545,10.8847273 C14.3714545,9.34654545 15.6205455,8.09927273 17.1587273,8.09927273 C18.6969091,8.09927273 19.946,9.34654545 19.946,10.8847273 C19.946,12.4247273 18.6969091,13.672 17.1587273,13.672 L17.1587273,13.672 Z" id="Stroke-10"></path>
                        <path d="M30,6.258 C28.4618182,6.258 27.2127273,5.01072727 27.2127273,3.47072727 C27.2127273,1.93254545 28.4618182,0.685272727 30,0.685272727 C31.5381818,0.685272727 32.7872727,1.93254545 32.7872727,3.47072727 C32.7872727,5.01072727 31.5381818,6.258 30,6.258 L30,6.258 Z" id="Stroke-12"></path>
                        <path d="M42.8412727,13.672 C41.3030909,13.672 40.054,12.4247273 40.054,10.8847273 C40.054,9.34654545 41.3030909,8.09927273 42.8412727,8.09927273 C44.3794545,8.09927273 45.6285455,9.34654545 45.6285455,10.8847273 C45.6285455,12.4247273 44.3794545,13.672 42.8412727,13.672 L42.8412727,13.672 Z" id="Stroke-14"></path>
                        <path d="M56.3045455,5.89890909 C54.7663636,5.89890909 53.5172727,4.65163636 53.5172727,3.11163636 C53.5172727,1.57345455 54.7663636,0.326181818 56.3045455,0.326181818 C57.8427273,0.326181818 59.0918182,1.57345455 59.0918182,3.11163636 C59.0918182,4.65163636 57.8427273,5.89890909 56.3045455,5.89890909 L56.3045455,5.89890909 Z" id="Stroke-16"></path>
                        <path d="M3.69545455,36.2727273 C2.15727273,36.2727273 0.908181818,35.0254545 0.908181818,33.4854545 C0.908181818,31.9472727 2.15727273,30.7 3.69545455,30.7 C5.23363636,30.7 6.48272727,31.9472727 6.48272727,33.4854545 C6.48272727,35.0254545 5.23363636,36.2727273 3.69545455,36.2727273 L3.69545455,36.2727273 Z" id="Stroke-18"></path>
                        <path d="M42.8412727,28.4998182 C41.3030909,28.4998182 40.054,27.2525455 40.054,25.7125455 C40.054,24.1743636 41.3030909,22.9270909 42.8412727,22.9270909 C44.3794545,22.9270909 45.6285455,24.1743636 45.6285455,25.7125455 C45.6285455,27.2525455 44.3794545,28.4998182 42.8412727,28.4998182 L42.8412727,28.4998182 Z" id="Stroke-20"></path>
                        <path d="M42,13.672 L42,22.9265455" id="Stroke-22"></path>
                        <path d="M45.3347273,9.446 L53.6674545,4.63509091" id="Stroke-24"></path>
                        <path d="M6.33290909,31.9636364 L14.6529091,27.16" id="Stroke-26"></path>
                    </g>
                </g>
            </g>
        </g>
    </g>
</svg>