<?xml version="1.0" encoding="UTF-8" standalone="no"?>
<svg width="42px" height="42px" viewBox="0 0 42 42" version="1.1" xmlns="http://www.w3.org/2000/svg" xmlns:xlink="http://www.w3.org/1999/xlink">
    <!-- Generator: Sketch 3.6.1 (26313) - http://www.bohemiancoding.com/sketch -->
    <title>Page 1</title>
    <desc>Created with Sketch.</desc>
    <defs></defs>
    <g id="Page-1" stroke="none" stroke-width="1" fill="none" fill-rule="evenodd" stroke-linecap="round" stroke-linejoin="round">
        <g id="Desktop-HD" transform="translate(-249.000000, -542.000000)" stroke="#2C3744" stroke-width="2">
            <g id="Page-1" transform="translate(250.000000, 543.000000)">
                <path d="M29.633697,7.45309091 L20.0979394,16.9888485 C17.3379394,15.2724848 14.0070303,15.3221818 11.9973333,17.3306667 C11.7100606,17.6179394 11.4627879,17.9318788 11.2567273,18.2676364 C10.2555152,19.8894545 8.71854545,21.1670303 6.82521212,21.3864242 C5.23248485,21.5718788 3.7670303,22.2215758 2.63127273,23.3573333 C-0.515393939,26.504 0.0688484848,32.1924848 3.93793939,36.0615758 C7.8070303,39.9306667 13.4955152,40.5161212 16.6433939,37.3682424 C17.7779394,36.2324848 18.4276364,34.7670303 18.6130909,33.1755152 C18.833697,31.2821818 20.1100606,29.7452121 21.7330909,28.744 C22.0676364,28.5367273 22.3815758,28.2906667 22.6688485,28.0033939 C24.6785455,25.993697 24.7270303,22.6615758 23.0118788,19.9015758 L32.5464242,10.3658182" id="Stroke-1"></path>
                <path d="M34.6598788,9.31006061 L39.4053333,4.56460606 L35.4465455,0.605818182 L30.7010909,5.35127273" id="Stroke-3"></path>
                <path d="M30.7014545,5.35163636 C30.7014545,5.35163636 30.6372121,6.44981818 29.6335758,7.45345455" id="Stroke-5"></path>
                <path d="M34.6598788,9.31006061 C34.6598788,9.31006061 33.561697,9.37430303 32.5580606,10.3779394" id="Stroke-7"></path>
                <path d="M38.2341818,5.73575758 L39.025697,6.52848485" id="Stroke-9"></path>
                <path d="M36.2018182,7.76812121 L36.9945455,8.55963636" id="Stroke-11"></path>
                <path d="M33.4836364,0.985212121 L34.2763636,1.77672727" id="Stroke-13"></path>
                <path d="M31.4512727,3.01757576 L32.2427879,3.80909091" id="Stroke-15"></path>
                <path d="M14.9612121,29.2882424 C13.7878788,30.4615758 11.8848485,30.4615758 10.7115152,29.2882424 C9.53818182,28.1149091 9.53818182,26.2118788 10.7115152,25.0385455 C11.8848485,23.8652121 13.7878788,23.8652121 14.9612121,25.0385455 C16.1345455,26.2118788 16.1345455,28.1149091 14.9612121,29.2882424 L14.9612121,29.2882424 Z" id="Stroke-17"></path>
            </g>
        </g>
    </g>
</svg>