<?xml version="1.0" encoding="UTF-8" standalone="no"?>
<svg width="37px" height="42px" viewBox="0 0 37 42" version="1.1" xmlns="http://www.w3.org/2000/svg" xmlns:xlink="http://www.w3.org/1999/xlink">
    <!-- Generator: Sketch 3.7 (28169) - http://www.bohemiancoding.com/sketch -->
    <title>Page 1</title>
    <desc>Created with Sketch.</desc>
    <defs></defs>
    <g id="Page-1" stroke="none" stroke-width="1" fill="none" fill-rule="evenodd" stroke-linecap="round" stroke-linejoin="round">
        <g id="Desktop-HD" transform="translate(-551.000000, -752.000000)" stroke="#2C3744" stroke-width="2">
            <g id="icon-group" transform="translate(435.000000, 705.000000)">
                <g id="Page-1" transform="translate(117.000000, 48.000000)">
                    <g id="Group-4">
                        <polygon id="Stroke-1" points="0.606060606 39.3939394 3.96363636 39.3939394 3.96363636 20.1733333 0.606060606 20.1733333"></polygon>
                        <polygon id="Stroke-3" points="34.6019394 16.1061818 9.208 16.1061818 14.168 0.605575758 29.6419394 0.605575758"></polygon>
                    </g>
                    <polyline id="Stroke-5" points="21.9047273 16.1061818 21.9047273 29.7837576 3.96290909 29.7837576"></polyline>
                    <path d="M29,16.1061818 L29,21.0661818" id="Stroke-6"></path>
                    <path d="M30.7766061,22.7390303 C30.7766061,23.5269091 30.1378182,24.165697 29.3487273,24.165697 C28.5608485,24.165697 27.9220606,23.5269091 27.9220606,22.7390303 C27.9220606,21.9511515 28.5608485,21.3111515 29.3487273,21.3111515 C30.1378182,21.3111515 30.7766061,21.9511515 30.7766061,22.7390303 L30.7766061,22.7390303 Z" id="Stroke-7"></path>
                </g>
            </g>
        </g>
    </g>
</svg>