<?xml version="1.0" encoding="UTF-8" standalone="no"?>
<svg width="142px" height="18px" viewBox="0 0 142 18" version="1.1" xmlns="http://www.w3.org/2000/svg" xmlns:xlink="http://www.w3.org/1999/xlink" xmlns:sketch="http://www.bohemiancoding.com/sketch/ns">
    <!-- Generator: Sketch 3.3.3 (12081) - http://www.bohemiancoding.com/sketch -->
    <title>logo-inewswire</title>
    <desc>Created with Sketch.</desc>
    <defs></defs>
    <g id="Page-1" stroke="none" stroke-width="1" fill="none" fill-rule="evenodd" sketch:type="MSPage">
        <g id="newswire-company-newsroom" sketch:type="MSArtboardGroup" transform="translate(-39.000000, -29.000000)" fill="#FFFFFF">
            <g id="left-nav" sketch:type="MSLayerGroup">
                <g id="logo-inewswire" transform="translate(39.000000, 29.000000)" sketch:type="MSShapeGroup">
                    <path d="M0,1.6565625 C0,0.828 0.6575625,0.14625 1.5103125,0.14625 L1.827,0.14625 C2.5576875,0.14625 2.9716875,0.5113125 3.38625,1.0231875 L11.9120625,12.05775 L11.9120625,1.5834375 C11.9120625,0.779625 12.569625,0.1220625 13.374,0.1220625 C14.202,0.1220625 14.8595625,0.779625 14.8595625,1.5834375 L14.8595625,15.9069375 C14.8595625,16.7355 14.2261875,17.393625 13.397625,17.393625 L13.2755625,17.393625 C12.5690625,17.393625 12.130875,17.028 11.716875,16.4919375 L2.9475,5.140125 L2.9475,15.955875 C2.9475,16.76025 2.2899375,17.4178125 1.486125,17.4178125 C0.6575625,17.4178125 0,16.76025 0,15.955875 L0,1.6565625 L0,1.6565625 Z" id="Shape"></path>
                    <path d="M19.2425625,15.7854375 L19.2425625,1.753875 C19.2425625,0.9016875 19.900125,0.2435625 20.7534375,0.2435625 L30.6680625,0.2435625 C31.39875,0.2435625 32.0079375,0.85275 32.0079375,1.582875 C32.0079375,2.33775 31.39875,2.92275 30.6680625,2.92275 L22.2395625,2.92275 L22.2395625,7.3558125 L29.57175,7.3558125 C30.3024375,7.3558125 30.911625,7.965 30.911625,8.719875 C30.911625,9.451125 30.3024375,10.035 29.57175,10.035 L22.2395625,10.035 L22.2395625,14.614875 L30.7895625,14.614875 C31.5208125,14.614875 32.1294375,15.2240625 32.1294375,15.95475 C32.1294375,16.7101875 31.5208125,17.294625 30.7895625,17.294625 L20.7534375,17.294625 C19.9006875,17.29575 19.2425625,16.6381875 19.2425625,15.7854375 L19.2425625,15.7854375 Z" id="Shape"></path>
                    <path d="M34.5155625,2.167875 C34.441875,1.9974375 34.3935,1.7780625 34.3935,1.582875 C34.3935,0.754875 35.0994375,0.1215 35.928,0.1215 C36.6586875,0.1215 37.2189375,0.5844375 37.414125,1.2178125 L41.3364375,12.9346875 L45.1850625,1.2661875 C45.4291875,0.56025 45.9405,0.073125 46.695375,0.073125 L46.91475,0.073125 C47.6701875,0.073125 48.2056875,0.56025 48.425625,1.2661875 L52.27425,12.9346875 L56.1965625,1.1930625 C56.4159375,0.583875 56.92725,0.1209375 57.6579375,0.1209375 C58.46175,0.1209375 59.1440625,0.7543125 59.1440625,1.558125 C59.1440625,1.75275 59.0709375,1.996875 58.9978125,2.1673125 L53.955,16.29675 C53.68725,17.0510625 53.127,17.53875 52.3963125,17.53875 L52.1038125,17.53875 C51.373125,17.53875 50.8370625,17.076375 50.5693125,16.29675 L46.7685,5.1643125 L42.96825,16.2973125 C42.7005,17.0769375 42.1396875,17.5393125 41.4095625,17.5393125 L41.1170625,17.5393125 C40.386375,17.5393125 39.8503125,17.0769375 39.558375,16.2973125 L34.5155625,2.167875 L34.5155625,2.167875 Z" id="Shape"></path>
                    <path d="M61.578,15.395625 C61.237125,15.1520625 60.993,14.7380625 60.993,14.2509375 C60.993,13.47075 61.626375,12.8626875 62.406,12.8626875 C62.82,12.8626875 63.0883125,12.9841875 63.2829375,13.1304375 C64.6959375,14.2509375 66.20625,14.884875 68.0574375,14.884875 C69.908625,14.884875 71.0775,14.007375 71.0775,12.740625 L71.0775,12.691125 C71.0775,11.473875 70.3963125,10.8151875 67.2294375,10.0850625 C63.599625,9.2075625 61.5538125,8.136 61.5538125,4.9933125 L61.5538125,4.9455 C61.5538125,2.0221875 63.99,0 67.3756875,0 C69.5199375,0 71.249625,0.5608125 72.784125,1.5834375 C73.1244375,1.7780625 73.441125,2.192625 73.441125,2.7770625 C73.441125,3.55725 72.8083125,4.165875 72.0286875,4.165875 C71.735625,4.165875 71.492625,4.09275 71.2490625,3.9465 C69.933375,3.09375 68.666625,2.6555625 67.32675,2.6555625 C65.572875,2.6555625 64.5496875,3.5578125 64.5496875,4.67775 L64.5496875,4.726125 C64.5496875,6.0418125 65.32875,6.6268125 68.6176875,7.4064375 C72.2233125,8.2828125 74.0745,9.5743125 74.0745,12.4003125 L74.0745,12.4486875 C74.0745,15.63975 71.5651875,17.5404375 67.9843125,17.5404375 C65.6701875,17.539875 63.478125,16.8091875 61.578,15.395625 L61.578,15.395625 Z" id="Shape"></path>
                    <path d="M76.94775,1.1205 C76.8988125,0.999 76.874625,0.9016875 76.874625,0.8038125 C76.874625,0.4635 77.1913125,0.1468125 77.531625,0.1468125 C77.8730625,0.1468125 78.1171875,0.4393125 78.2139375,0.73125 L83.403,15.4209375 L88.250625,0.6339375 C88.3485,0.3661875 88.5189375,0.1468125 88.8598125,0.1468125 L88.9081875,0.1468125 C89.224875,0.1468125 89.4195,0.3661875 89.5179375,0.6339375 L94.365,15.4209375 L99.57825,0.658125 C99.7003125,0.3414375 99.8949375,0.1468125 100.187437,0.1468125 C100.504125,0.1468125 100.820812,0.4635 100.820812,0.7801875 C100.820812,0.8775 100.772437,0.9995625 100.722937,1.1210625 L95.023125,16.9306875 C94.9010625,17.247375 94.7064375,17.4909375 94.365,17.4909375 L94.3160625,17.4909375 C93.9751875,17.4909375 93.7558125,17.2468125 93.6585,16.9306875 L88.8350625,2.6071875 L84.0121875,16.9306875 C83.9143125,17.247375 83.6955,17.4909375 83.3540625,17.4909375 L83.305125,17.4909375 C82.9648125,17.4909375 82.7701875,17.2715625 82.648125,16.9306875 L76.94775,1.1205 L76.94775,1.1205 Z" id="Shape"></path>
                    <path d="M104.958562,0.779625 C104.958562,0.43875 105.251625,0.14625 105.591937,0.14625 C105.933375,0.14625 106.225312,0.43875 106.225312,0.779625 L106.225312,16.76025 C106.225312,17.1005625 105.933375,17.393625 105.591937,17.393625 C105.251625,17.393625 104.958562,17.1005625 104.958562,16.76025 L104.958562,0.779625 L104.958562,0.779625 Z" id="Shape"></path>
                    <path d="M129.072938,16.675875 L129.072938,1.2133125 C129.072938,0.878625 129.366,0.592875 129.706313,0.592875 L140.716688,0.592875 C141.033375,0.592875 141.301125,0.855 141.301125,1.1649375 C141.301125,1.4754375 141.033375,1.7386875 140.716688,1.7386875 L130.339688,1.7386875 L130.339688,8.3008125 L139.620375,8.3008125 C139.937625,8.3008125 140.205375,8.5629375 140.205375,8.8734375 C140.205375,9.183375 139.937625,9.446625 139.620375,9.446625 L130.339688,9.446625 L130.339688,16.1510625 L140.83875,16.1510625 C141.155438,16.1510625 141.423188,16.4131875 141.423188,16.7236875 C141.423188,17.0341875 141.155438,17.296875 140.83875,17.296875 L129.706313,17.296875 C129.366,17.29575 129.072938,17.0094375 129.072938,16.675875 L129.072938,16.675875 Z" id="Shape"></path>
                    <path d="M113.347125,0.3583125 L117.772875,0.3583125 C119.523938,0.3583125 120.961125,1.180125 122.085563,2.822625 C122.441625,3.4498125 122.619375,4.10625 122.619375,4.791375 L122.619375,4.9775625 C122.619375,6.50475 121.771688,7.7551875 120.076875,8.73 L119.24775,9.1141875 C122.563125,14.1496875 124.220813,16.6933125 124.220813,16.7428125 L124.220813,16.9779375 C124.220813,17.267625 123.991313,17.44425 123.532313,17.510625 L123.503625,17.510625 C123.148125,17.510625 122.721188,17.031375 122.225625,16.0734375 L117.743625,9.34875 L114.174563,9.34875 L114.174563,16.9779375 C114.174563,17.267625 113.945625,17.44425 113.486625,17.510625 L113.4585,17.510625 C113.112,17.510625 112.8915,17.29125 112.798125,16.8541875 L112.798125,1.101375 C112.8555,0.6058125 113.038313,0.3583125 113.347125,0.3583125 L113.347125,0.3583125 Z M114.175688,1.522125 L114.175688,8.1478125 L117.547313,8.1478125 C119.402438,8.1478125 120.62025,7.268625 121.20075,5.51025 L121.256438,5.0895 L121.256438,4.692375 C121.256438,3.3879375 120.436875,2.4013125 118.798875,1.7330625 C118.330313,1.5924375 117.633375,1.522125 116.70525,1.522125 L114.175688,1.522125 L114.175688,1.522125 Z" id="Shape"></path>
                </g>
            </g>
        </g>
    </g>
</svg>