<svg id="Layer_1" data-name="Layer 1" xmlns="http://www.w3.org/2000/svg" viewBox="0 0 35.32 33.3"><defs><style>.cls-1{fill:none;stroke:#2a7ddf;stroke-miterlimit:10;}</style></defs><title>icon-results</title><polygon class="cls-1" points="11.82 18.3 16.42 14.9 10.72 14.9 8.92 9.5 7.22 14.9 1.52 14.9 6.12 18.3 4.32 23.7 8.92 20.4 13.52 23.7 11.82 18.3"/><path class="cls-1" d="M544.17,268.35v-2.5a2,2,0,0,1,2-2h15.9" transform="translate(-535.25 -263.35)"/><path class="cls-1" d="M570.07,272v22.1a2,2,0,0,1-2,2h-21.9a2,2,0,0,1-2-2v-5.4" transform="translate(-535.25 -263.35)"/><polyline class="cls-1" points="34.82 8.7 26.82 8.7 26.82 0.8"/><line class="cls-1" x1="26.82" y1="0.5" x2="34.82" y2="8.7"/></svg>