<svg id="Layer_1" data-name="Layer 1" xmlns="http://www.w3.org/2000/svg" viewBox="0 0 28.03 33.29"><defs><style>.cls-1{fill:none;stroke:#2880dd;stroke-linecap:round;stroke-linejoin:round;}</style></defs><title>icon-draft</title><line class="cls-1" x1="26.36" y1="15.1" x2="26.36" y2="24.59"/><path class="cls-1" d="M6653.62,3579.69h-12.37a2,2,0,0,0-2,2V3610a2,2,0,0,0,2,2h15.88" transform="translate(-6638.75 -3579.19)"/><polyline class="cls-1" points="26.36 24.59 18.38 24.59 18.38 32.57"/><line class="cls-1" x1="18.38" y1="32.79" x2="26.36" y2="24.59"/><path class="cls-1" d="M6647.72,3593.66l12.56-12.56a2,2,0,0,1,2.83,0l2.59,2.59a2,2,0,0,1,0,2.83l-12.56,12.56" transform="translate(-6638.75 -3579.19)"/><polygon class="cls-1" points="14.39 19.89 8.02 20.85 8.97 14.47 14.39 19.89"/><line class="cls-1" x1="11.68" y1="17.18" x2="25.65" y2="3.21"/></svg>