<?xml version="1.0" encoding="utf-8"?>
<!-- Generator: Adobe Illustrator 15.0.0, SVG Export Plug-In  -->
<!DOCTYPE svg PUBLIC "-//W3C//DTD SVG 1.1//EN" "http://www.w3.org/Graphics/SVG/1.1/DTD/svg11.dtd" [
	<!ENTITY ns_flows "http://ns.adobe.com/Flows/1.0/">
]>
<svg version="1.1"
	 xmlns="http://www.w3.org/2000/svg" xmlns:xlink="http://www.w3.org/1999/xlink" xmlns:a="http://ns.adobe.com/AdobeSVGViewerExtensions/3.0/"
	 x="0px" y="0px" width="252px" height="32px" viewBox="-0.013 -0.165 252 32" enable-background="new -0.013 -0.165 252 32"
	 xml:space="preserve">
<defs>
</defs>
<path fill="#FFFFFF" d="M0,2.945C0,1.472,1.169,0.26,2.685,0.26h0.563c1.299,0,2.035,0.649,2.772,1.559l15.157,19.617V2.815
	c0-1.429,1.169-2.598,2.599-2.598c1.472,0,2.641,1.169,2.641,2.598v25.464c0,1.473-1.126,2.643-2.599,2.643h-0.217
	c-1.256,0-2.035-0.65-2.771-1.603L5.24,9.138v19.228c0,1.43-1.169,2.599-2.598,2.599C1.169,30.965,0,29.796,0,28.366V2.945z"/>
<path fill="#FFFFFF" d="M34.209,28.063V3.118c0-1.515,1.169-2.685,2.686-2.685h17.626c1.299,0,2.382,1.083,2.382,2.381
	c0,1.342-1.083,2.382-2.382,2.382H39.537v7.881h13.035c1.299,0,2.382,1.083,2.382,2.425c0,1.3-1.083,2.338-2.382,2.338H39.537v8.142
	h15.2c1.3,0,2.382,1.083,2.382,2.382c0,1.343-1.082,2.382-2.382,2.382H36.895C35.379,30.748,34.209,29.579,34.209,28.063z"/>
<path fill="#FFFFFF" d="M61.361,3.854c-0.131-0.303-0.217-0.693-0.217-1.04c0-1.472,1.255-2.598,2.728-2.598
	c1.299,0,2.295,0.823,2.642,1.949l6.973,20.83l6.842-20.744c0.434-1.255,1.343-2.121,2.685-2.121h0.39
	c1.343,0,2.295,0.866,2.686,2.121l6.842,20.744l6.973-20.874c0.39-1.083,1.299-1.906,2.598-1.906c1.429,0,2.642,1.126,2.642,2.555
	c0,0.346-0.13,0.78-0.26,1.083l-8.965,25.119c-0.476,1.341-1.472,2.208-2.771,2.208h-0.52c-1.299,0-2.252-0.822-2.728-2.208
	L83.144,9.181l-6.756,19.792c-0.476,1.386-1.473,2.208-2.771,2.208h-0.52c-1.299,0-2.252-0.822-2.771-2.208L61.361,3.854z"/>
<path fill="#FFFFFF" d="M109.472,27.37c-0.606-0.433-1.04-1.169-1.04-2.035c0-1.387,1.126-2.468,2.512-2.468
	c0.736,0,1.213,0.216,1.559,0.476c2.512,1.992,5.197,3.119,8.488,3.119c3.291,0,5.369-1.56,5.369-3.812v-0.088
	c0-2.164-1.211-3.335-6.841-4.633c-6.453-1.56-10.09-3.465-10.09-9.052V8.792c0-5.197,4.331-8.792,10.35-8.792
	c3.812,0,6.887,0.997,9.615,2.815c0.605,0.346,1.168,1.083,1.168,2.122c0,1.387-1.125,2.469-2.511,2.469
	c-0.521,0-0.953-0.13-1.386-0.39c-2.339-1.516-4.591-2.295-6.973-2.295c-3.118,0-4.937,1.604-4.937,3.595v0.086
	c0,2.339,1.385,3.379,7.232,4.765c6.41,1.558,9.701,3.854,9.701,8.878v0.086c0,5.673-4.461,9.052-10.827,9.052
	C116.747,31.182,112.85,29.883,109.472,27.37z"/>
<path fill="#FFFFFF" d="M136.796,1.992c-0.087-0.216-0.13-0.389-0.13-0.563c0-0.605,0.563-1.168,1.168-1.168
	c0.607,0,1.041,0.52,1.213,1.039l9.225,26.115l8.618-26.288c0.174-0.476,0.477-0.866,1.083-0.866h0.086
	c0.563,0,0.909,0.39,1.084,0.866l8.617,26.288l9.268-26.245c0.217-0.563,0.563-0.909,1.083-0.909c0.563,0,1.126,0.563,1.126,1.126
	c0,0.173-0.086,0.39-0.174,0.606L168.93,30.099c-0.217,0.563-0.563,0.996-1.17,0.996h-0.087c-0.606,0-0.996-0.434-1.169-0.996
	l-8.575-25.464l-8.574,25.464c-0.174,0.563-0.563,0.996-1.17,0.996h-0.087c-0.605,0-0.951-0.39-1.168-0.996L136.796,1.992z"/>
<path fill="#FFFFFF" d="M186.593,1.386c0-0.606,0.521-1.126,1.126-1.126c0.607,0,1.126,0.52,1.126,1.126v28.41
	c0,0.605-0.519,1.126-1.126,1.126c-0.605,0-1.126-0.521-1.126-1.126V1.386z"/>
<path fill="#FFFFFF" d="M229.463,29.646V2.157c0-0.595,0.521-1.103,1.126-1.103h19.574c0.563,0,1.039,0.466,1.039,1.017
	c0,0.552-0.476,1.02-1.039,1.02h-18.448v11.666h16.499c0.564,0,1.04,0.466,1.04,1.018c0,0.551-0.476,1.019-1.04,1.019h-16.499
	v11.919h18.665c0.563,0,1.039,0.466,1.039,1.018s-0.476,1.019-1.039,1.019h-19.791C229.984,30.748,229.463,30.239,229.463,29.646z"
	/>
<path fill="#FFFFFF" d="M201.506,0.637h7.868c3.113,0,5.668,1.461,7.667,4.381c0.633,1.115,0.949,2.282,0.949,3.5v0.331
	c0,2.715-1.507,4.938-4.52,6.671l-1.474,0.683c5.894,8.952,8.841,13.474,8.841,13.562v0.418c0,0.515-0.408,0.829-1.224,0.947h-0.051
	c-0.632,0-1.391-0.852-2.272-2.555l-7.968-11.955h-6.345v13.563c0,0.515-0.407,0.829-1.223,0.947h-0.05
	c-0.616,0-1.008-0.39-1.174-1.167V1.958C200.632,1.077,200.957,0.637,201.506,0.637z M202.979,2.706v11.779h5.994
	c3.298,0,5.463-1.563,6.495-4.689l0.099-0.748V8.342c0-2.319-1.457-4.073-4.369-5.261c-0.833-0.25-2.072-0.375-3.722-0.375H202.979z
	"/>
</svg>
