<?xml version="1.0" encoding="UTF-8" standalone="no"?>
<svg width="176px" height="40px" viewBox="0 0 176 40" version="1.1" xmlns="http://www.w3.org/2000/svg" xmlns:xlink="http://www.w3.org/1999/xlink">
    <!-- Generator: Sketch 3.6.1 (26313) - http://www.bohemiancoding.com/sketch -->
    <title>logo-reuters</title>
    <desc>Created with Sketch.</desc>
    <defs></defs>
    <g id="Page-1" stroke="none" stroke-width="1" fill="none" fill-rule="evenodd">
        <g id="logo-reuters" transform="translate(88.108108, 20.000000) scale(1, -1) translate(-88.108108, -20.000000) ">
            <path d="M164.13467,15.2932865 C163.248184,15.2932865 161.875211,15.3592324 161.242735,15.4554486 C160.999492,15.4911243 160.864357,15.5895027 160.864357,15.833827 L160.864357,23.8068432 C160.864357,23.9391676 160.968141,24.0498703 161.106519,24.0498703 L162.322692,24.0498703 C162.455665,24.0498703 162.538908,23.9396 162.538908,23.806627 L162.538908,20.8065838 C162.819989,20.8206378 163.818908,20.8606378 164.133546,20.8606378 L164.403816,20.8606378 L166.16053,23.8065405 C166.22107,23.9276216 166.272962,24.0504324 166.402692,24.0504324 L167.889222,24.0504324 C167.993005,24.0504324 168.0276,23.9717297 168.0276,23.8878378 C168.0276,23.8608108 168.02587,23.8435135 168.000616,23.8067568 L166.080616,20.5375676 C167.078497,20.1505405 167.729222,19.4478378 167.729222,18.1591892 L167.729222,18.0510811 C167.729222,15.9710811 166.011427,15.2943243 164.13467,15.2943243 L164.13467,15.2932865 Z M164.13467,16.7527459 C165.35413,16.7527459 166.053632,17.1376108 166.053632,18.0500432 L166.053632,18.1581514 C166.053632,19.2284216 165.392011,19.4824324 164.13467,19.4824324 C163.931427,19.4824324 162.737914,19.4402703 162.540032,19.4283784 L162.540032,16.8068 C162.759492,16.7830162 163.880573,16.7527459 164.13467,16.7527459 L164.13467,16.7527459 Z" id="Shape" fill="#827F80" transform="translate(164.445978, 19.671859) scale(1, -1) translate(-164.445978, -19.671859) "></path>
            <path d="M122.811427,15.2930703 C121.921654,15.2930703 120.553092,15.3590162 119.919492,15.4552324 C119.674086,15.4909081 119.541114,15.5892865 119.541114,15.8336108 L119.541114,23.806627 C119.541114,23.9396 119.651384,24.0498703 119.784357,24.0498703 L121.00053,24.0498703 C121.134584,24.0498703 121.216746,23.9396 121.216746,23.806627 L121.216746,20.8065838 C121.496746,20.8206378 122.493459,20.8606378 122.811384,20.8606378 L123.081654,20.8606378 L124.838368,23.8065405 C124.898908,23.9276216 124.9508,24.0504324 125.08053,24.0504324 L126.567059,24.0504324 C126.663276,24.0504324 126.702195,23.9715135 126.702195,23.8882703 C126.702195,23.8612432 126.700465,23.8439459 126.675211,23.8071892 L124.755211,20.538 C125.753092,20.150973 126.403816,19.4482703 126.403816,18.1596216 L126.403816,18.0515135 C126.403816,15.9715135 124.682735,15.2947568 122.809265,15.2947568 L122.811427,15.2930703 Z M122.811427,16.7525297 C124.028724,16.7525297 124.730389,17.1373946 124.730389,18.049827 L124.730389,18.1579351 C124.730389,19.2282054 124.063362,19.4822162 122.811427,19.4822162 C122.601697,19.4822162 121.410346,19.4400541 121.216789,19.4281622 L121.216789,16.8065838 C121.434086,16.7828 122.555168,16.7525297 122.811427,16.7525297 L122.811427,16.7525297 Z" id="Shape" fill="#827F80" transform="translate(123.121654, 19.671751) scale(1, -1) translate(-123.121654, -19.671751) "></path>
            <path d="M100.731427,15.2126378 C98.7227784,15.2126378 96.8665189,16.3466486 96.8665189,19.0234054 L96.8665189,20.2666486 C96.8665189,22.9444432 98.7226919,24.0504324 100.731427,24.0504324 C102.738951,24.0504324 104.596335,22.9444432 104.596335,20.2666486 L104.596335,19.0234054 C104.596335,16.3466486 102.739038,15.2126378 100.731427,15.2126378 L100.731427,15.2126378 Z M100.731427,16.6991676 C101.923903,16.6991676 102.893589,17.4170054 102.893589,19.0234919 L102.893589,20.2667351 C102.893589,21.8732216 101.923903,22.5910595 100.731427,22.5910595 C99.5379135,22.5910595 98.5692649,21.8732216 98.5692649,20.2667351 L98.5692649,19.0234919 C98.5692649,17.4170054 99.5379135,16.6991676 100.731427,16.6991676 L100.731427,16.6991676 Z" id="Shape" fill="#827F80" transform="translate(100.731427, 19.631535) scale(1, -1) translate(-100.731427, -19.631535) "></path>
            <path d="M72.3508865,15.2126378 C70.3433622,15.2126378 68.4859784,16.3466486 68.4859784,19.0234054 L68.4859784,20.2666486 C68.4859784,22.9444432 70.3432757,24.0504324 72.3508865,24.0504324 C74.3606595,24.0504324 76.2157946,22.9444432 76.2157946,20.2666486 L76.2157946,19.0234054 C76.2157946,16.3466486 74.3606595,15.2126378 72.3508865,15.2126378 L72.3508865,15.2126378 Z M72.3508865,16.6991676 C73.5444,16.6991676 74.5130486,17.4170054 74.5130486,19.0234919 L74.5130486,20.2667351 C74.5130486,21.8732216 73.5444,22.5910595 72.3508865,22.5910595 C71.1584108,22.5910595 70.1887243,21.8732216 70.1887243,20.2667351 L70.1887243,19.0234919 C70.1887243,17.4170054 71.1584108,16.6991676 72.3508865,16.6991676 L72.3508865,16.6991676 Z" id="Shape" fill="#827F80" transform="translate(72.350886, 19.631535) scale(1, -1) translate(-72.350886, -19.631535) "></path>
            <path d="M154.518919,17.6972973 C154.518919,16.6767568 154.556757,16.6497297 155.478919,16.6497297 L158.562162,16.6497297 C158.692973,16.6497297 158.804324,16.5405405 158.804324,16.4064865 L158.804324,15.6291892 C158.804324,15.4572973 158.742703,15.3967568 158.562162,15.372973 C158.170811,15.3113514 157.379459,15.2021622 155.931892,15.2021622 C153.907027,15.2021622 152.837838,15.1891892 152.837838,17.6972973 L152.837838,21.5491892 C152.837838,24.0562162 153.907027,24.0421622 155.931892,24.0421622 C157.379459,24.0421622 158.170811,23.932973 158.562162,23.8724324 C158.742703,23.8497297 158.804324,23.787027 158.804324,23.6162162 L158.804324,22.8389189 C158.804324,22.7059459 158.692973,22.5945946 158.562162,22.5945946 L155.478919,22.5945946 C154.556757,22.5945946 154.518919,22.5664865 154.518919,21.5491892 L154.518919,20.4324324 L158.415135,20.4324324 C158.549189,20.4324324 158.656216,20.3221622 158.656216,20.1902703 L158.656216,19.3113514 C158.656216,19.1783784 158.549189,19.0691892 158.415135,19.0691892 L154.518919,19.0691892 L154.518919,17.6972973 L154.518919,17.6972973 Z" id="Shape" fill="#827F80"></path>
            <path d="M172.518919,15.2 C171.443243,15.2 170.352432,15.3848649 169.767568,15.52 C169.647568,15.5437838 169.536216,15.6281081 169.536216,15.7621622 L169.536216,16.6389189 C169.536216,16.7718919 169.647568,16.8702703 169.767568,16.8702703 L169.792432,16.8702703 C170.28,16.8097297 171.418378,16.6508108 172.543784,16.6508108 C173.625946,16.6508108 173.957838,17.0389189 173.957838,17.7437838 C173.957838,18.6572973 171.778378,19.1621622 170.714595,19.6010811 C169.656216,20.0389189 169.281081,20.8778378 169.281081,21.7286486 C169.281081,23.0681081 170.358919,24.0421622 172.622703,24.0421622 C173.782703,24.0421622 174.844324,23.8216216 175.258378,23.7221622 C175.380541,23.6983784 175.476757,23.612973 175.476757,23.4918919 L175.476757,22.5902703 C175.476757,22.4702703 175.393514,22.3718919 175.27027,22.3718919 L175.246486,22.3718919 C174.442162,22.4443243 173.60973,22.5924324 172.551351,22.5924324 C171.648649,22.5924324 170.974054,22.2756757 170.974054,21.7286486 C170.974054,21.3275676 171.431351,20.96 171.972973,20.7448649 C172.513514,20.532973 173.220541,20.2562162 174.03027,19.9308108 C175.056216,19.5156757 175.721081,18.9124324 175.721081,17.7437838 C175.721081,16.5156757 174.954595,15.2 172.518919,15.2" id="Shape" fill="#827F80"></path>
            <path d="M151.351351,22.5297297 L148.923243,22.5297297 L148.923243,15.5372973 C148.923243,15.4043243 148.811892,15.2940541 148.676757,15.2940541 L147.472432,15.2940541 C147.339459,15.2940541 147.229189,15.4043243 147.229189,15.5372973 L147.229189,22.5297297 L144.798919,22.5297297 C144.667027,22.5297297 144.556757,22.612973 144.556757,22.747027 L144.556757,23.7091892 C144.556757,23.8443243 144.667027,23.9405405 144.798919,23.9405405 L151.351351,23.9405405 C151.483243,23.9405405 151.593514,23.8443243 151.593514,23.7091892 L151.593514,22.747027 C151.593514,22.612973 151.483243,22.5297297 151.351351,22.5297297" id="Shape" fill="#827F80"></path>
            <path d="M139.697297,15.2 C137.738378,15.2 136.051892,16.0518919 136.051892,18.6464865 L136.051892,23.7124324 C136.051892,23.8475676 136.163243,23.9437838 136.296216,23.9437838 L137.499459,23.9437838 C137.634595,23.9437838 137.742703,23.8475676 137.742703,23.7124324 L137.742703,18.6464865 C137.742703,17.2583784 138.384865,16.6 139.697297,16.6 C141.012973,16.6 141.652973,17.2583784 141.652973,18.6464865 L141.652973,23.7124324 C141.652973,23.8475676 141.762162,23.9437838 141.896216,23.9437838 L143.100541,23.9437838 C143.235676,23.9437838 143.345946,23.8475676 143.345946,23.7124324 L143.345946,18.6464865 C143.345946,16.0518919 141.658378,15.2 139.697297,15.2" id="Shape" fill="#827F80"></path>
            <path d="M129.945946,17.6972973 C129.945946,16.6767568 129.984865,16.6497297 130.904865,16.6497297 L133.987027,16.6497297 C134.121081,16.6497297 134.23027,16.5405405 134.23027,16.4064865 L134.23027,15.6291892 C134.23027,15.4572973 134.168649,15.3967568 133.987027,15.372973 C133.596757,15.3113514 132.804324,15.2021622 131.356757,15.2021622 C129.336216,15.2021622 128.264865,15.1891892 128.264865,17.6972973 L128.264865,21.5491892 C128.264865,24.0562162 129.336216,24.0421622 131.356757,24.0421622 C132.804324,24.0421622 133.596757,23.932973 133.987027,23.8724324 C134.168649,23.8497297 134.23027,23.787027 134.23027,23.6162162 L134.23027,22.8389189 C134.23027,22.7059459 134.121081,22.5945946 133.987027,22.5945946 L130.904865,22.5945946 C129.984865,22.5945946 129.945946,22.5664865 129.945946,21.5491892 L129.945946,20.4324324 L133.841081,20.4324324 C133.975135,20.4324324 134.084324,20.3221622 134.084324,20.1902703 L134.084324,19.3113514 C134.084324,19.1783784 133.975135,19.0691892 133.841081,19.0691892 L129.945946,19.0691892 L129.945946,17.6972973 L129.945946,17.6972973 Z" id="Shape" fill="#827F80"></path>
            <path d="M92.1297297,15.2 C91.0551351,15.2 89.9632432,15.3848649 89.3783784,15.52 C89.2562162,15.5437838 89.147027,15.6281081 89.147027,15.7621622 L89.147027,16.6389189 C89.147027,16.7718919 89.2562162,16.8702703 89.3783784,16.8702703 L89.4021622,16.8702703 C89.8886486,16.8097297 91.0281081,16.6508108 92.1535135,16.6508108 C93.2378378,16.6508108 93.5664865,17.0389189 93.5664865,17.7437838 C93.5664865,18.6572973 91.3902703,19.1621622 90.3275676,19.6010811 C89.2659459,20.0389189 88.8918919,20.8778378 88.8918919,21.7286486 C88.8918919,23.0681081 89.9708108,24.0421622 92.2335135,24.0421622 C93.3945946,24.0421622 94.4562162,23.8216216 94.8691892,23.7221622 C94.9913514,23.6983784 95.0875676,23.612973 95.0875676,23.4918919 L95.0875676,22.5902703 C95.0875676,22.4702703 95.0032432,22.3718919 94.8821622,22.3718919 L94.8572973,22.3718919 C94.052973,22.4443243 93.2194595,22.5924324 92.16,22.5924324 C91.2616216,22.5924324 90.5837838,22.2756757 90.5837838,21.7286486 C90.5837838,21.3275676 91.0421622,20.9589189 91.5805405,20.7448649 C92.1210811,20.532973 92.8313514,20.2562162 93.64,19.9308108 C94.6681081,19.5156757 95.332973,18.9124324 95.332973,17.7437838 C95.332973,16.5156757 94.5664865,15.2 92.1297297,15.2" id="Shape" fill="#827F80"></path>
            <path d="M113.448649,15.2972973 L112.217297,15.2972973 C111.924324,15.2972973 111.668108,15.2972973 111.476757,15.7340541 L108.175135,21.2659459 C108.139459,21.3383784 108.101622,21.3643243 108.065946,21.3643243 C108.031351,21.3643243 108.004324,21.3383784 108.004324,21.2659459 L108.004324,15.5405405 C108.004324,15.4075676 107.907027,15.2972973 107.772973,15.2972973 L106.740541,15.2972973 C106.604324,15.2972973 106.497297,15.4075676 106.497297,15.5405405 L106.497297,23.4572973 C106.497297,23.7254054 106.713514,23.9437838 106.982703,23.9437838 L108.297297,23.9437838 C108.553514,23.9437838 108.685405,23.8702703 108.833514,23.5524324 L112.267027,17.6951351 C112.28973,17.6356757 112.326486,17.5978378 112.364324,17.5978378 C112.388108,17.5978378 112.422703,17.6356757 112.422703,17.7081081 L112.422703,23.7124324 C112.422703,23.8475676 112.52,23.9437838 112.655135,23.9437838 L113.702703,23.9437838 C113.836757,23.9437838 113.935135,23.8475676 113.935135,23.7124324 L113.935135,15.7837838 C113.935135,15.5156757 113.715676,15.2972973 113.448649,15.2972973" id="Shape" fill="#827F80"></path>
            <path d="M86.7027027,15.2972973 L85.4724324,15.2972973 C85.3643243,15.2972973 85.28,15.4205405 85.28,15.5405405 L85.28,20.8032432 C85.28,20.8886486 85.267027,20.9243243 85.24,20.9243243 C85.2313514,20.9243243 85.2064865,20.8886486 85.1805405,20.8518919 L83.2151351,16.5005405 C83.1427027,16.3675676 82.9859459,16.292973 82.8281081,16.292973 L82.1945946,16.292973 C82.0367568,16.292973 81.8778378,16.3675676 81.8064865,16.5005405 L79.8281081,20.8518919 C79.8032432,20.8886486 79.7772973,20.9243243 79.7675676,20.9243243 C79.7427027,20.9243243 79.7297297,20.8886486 79.7297297,20.8032432 L79.7297297,15.5405405 C79.7297297,15.4205405 79.6443243,15.2972973 79.5351351,15.2972973 L78.307027,15.2972973 C78.1967568,15.2972973 78.0983784,15.3589189 78.0983784,15.48 L78.0983784,23.4572973 C78.0983784,23.7254054 78.3178378,23.9437838 78.5859459,23.9437838 L79.5837838,23.9437838 C79.7772973,23.9437838 79.9491892,23.8227027 80.0345946,23.6518919 L82.3697297,18.8962162 C82.4302703,18.787027 82.4551351,18.7264865 82.5059459,18.7264865 C82.5535135,18.7264865 82.5783784,18.787027 82.64,18.8962162 L84.9740541,23.6518919 C85.0594595,23.8227027 85.2313514,23.9437838 85.4248649,23.9437838 L86.4237838,23.9437838 C86.6908108,23.9437838 86.9102703,23.7254054 86.9102703,23.4572973 L86.9102703,15.48 C86.9102703,15.3589189 86.8118919,15.2972973 86.7027027,15.2972973" id="Shape" fill="#827F80"></path>
            <path d="M66.3135135,15.2972973 L65.1102703,15.2972973 C64.9740541,15.2972973 64.8637838,15.4075676 64.8637838,15.5405405 L64.8637838,19.067027 L61.0086486,19.067027 L61.0086486,15.5405405 C61.0086486,15.4075676 60.8994595,15.2972973 60.7675676,15.2972973 L59.5610811,15.2972973 C59.4259459,15.2972973 59.3167568,15.4075676 59.3167568,15.5405405 L59.3167568,23.7124324 C59.3167568,23.8475676 59.4259459,23.9437838 59.5610811,23.9437838 L60.7675676,23.9437838 C60.8994595,23.9437838 61.0086486,23.8475676 61.0086486,23.7124324 L61.0086486,20.5513514 L64.8637838,20.5513514 L64.8637838,23.7124324 C64.8637838,23.8475676 64.9740541,23.9437838 65.1102703,23.9437838 L66.3135135,23.9437838 C66.4464865,23.9437838 66.5567568,23.8475676 66.5567568,23.7124324 L66.5567568,15.5405405 C66.5567568,15.4075676 66.4464865,15.2972973 66.3135135,15.2972973" id="Shape" fill="#827F80"></path>
            <path d="M57.5351351,22.5297297 L55.107027,22.5297297 L55.107027,15.5372973 C55.107027,15.4043243 54.9978378,15.2940541 54.8616216,15.2940541 L53.6594595,15.2940541 C53.5254054,15.2940541 53.4162162,15.4043243 53.4162162,15.5372973 L53.4162162,22.5297297 L50.9848649,22.5297297 C50.8508108,22.5297297 50.7405405,22.612973 50.7405405,22.747027 L50.7405405,23.7091892 C50.7405405,23.8443243 50.8508108,23.9405405 50.9848649,23.9405405 L57.5351351,23.9405405 C57.6691892,23.9405405 57.7794595,23.8443243 57.7794595,23.7091892 L57.7794595,22.747027 C57.7794595,22.612973 57.6691892,22.5297297 57.5351351,22.5297297" id="Shape" fill="#827F80"></path>
            <path d="M12.9189189,31.4594595 C12.6767568,31.7654054 12.2378378,31.812973 11.9318919,31.5740541 C11.6302703,31.332973 11.5762162,30.8951351 11.8162162,30.5891892 C12.0583784,30.2843243 12.4994595,30.2335135 12.8021622,30.4724324 C13.1059459,30.7156757 13.16,31.1545946 12.9189189,31.4594595 M19.9751351,34.1059459 C19.9189189,34.4908108 19.5621622,34.7545946 19.1772973,34.6972973 C18.7945946,34.6410811 18.5286486,34.2875676 18.5848649,33.9027027 C18.6410811,33.5178378 18.9978378,33.2551351 19.3816216,33.3102703 C19.7643243,33.3675676 20.0313514,33.7210811 19.9751351,34.1059459 M23.3891892,5.92432432 C23.0075676,5.86810811 22.7416216,5.51135135 22.7978378,5.12756757 C22.8540541,4.7427027 23.2118919,4.47891892 23.5935135,4.53621622 C23.9772973,4.59243243 24.2443243,4.94702703 24.187027,5.33189189 C24.132973,5.71567568 23.7751351,5.98054054 23.3891892,5.92432432 M29.9675676,8.76 C29.6659459,8.51891892 29.6118919,8.07891892 29.852973,7.77513514 C30.092973,7.47027027 30.5351351,7.42162162 30.8378378,7.66054054 C31.1427027,7.90162162 31.1945946,8.34054054 30.9545946,8.64648649 C30.7145946,8.94918919 30.2735135,9.00108108 29.9675676,8.76 M8.57189189,10.0789189 C8.86162162,9.2972973 9.72216216,8.90810811 10.492973,9.19567568 C11.2702703,9.48216216 11.667027,10.3372973 11.3783784,11.1178378 C11.0918919,11.8908108 10.2313514,12.2875676 9.4572973,11.9989189 C8.68324324,11.7124324 8.28540541,10.8497297 8.57189189,10.0789189 M11.4075676,7.55027027 C11.6313514,6.83027027 12.3891892,6.43675676 13.1037838,6.66162162 C13.8194595,6.88216216 14.2205405,7.64 13.9967568,8.35783784 C13.7740541,9.07243243 13.0108108,9.47135135 12.2962162,9.24864865 C11.5816216,9.02702703 11.1837838,8.26594595 11.4075676,7.55027027 M14.9632432,5.83459459 C15.1113514,5.24972973 15.7037838,4.90162162 16.2854054,5.04972973 C16.8681081,5.19891892 17.2205405,5.78702703 17.0713514,6.37189189 C16.9232432,6.95459459 16.3297297,7.30594595 15.747027,7.15675676 C15.1664865,7.00756757 14.8151351,6.4172973 14.9632432,5.83459459 M18.8151351,4.99459459 C18.9124324,4.50594595 19.387027,4.19135135 19.8735135,4.28864865 C20.3578378,4.38702703 20.6745946,4.85945946 20.5762162,5.34810811 C20.48,5.83243243 20.0054054,6.14810811 19.5189189,6.05189189 C19.0335135,5.95459459 18.7178378,5.47891892 18.8151351,4.99459459 M7.65837838,16.1697297 C8.39891892,16.5362162 8.70162162,17.4335135 8.33405405,18.1740541 C7.96540541,18.9189189 7.07135135,19.2172973 6.32864865,18.8497297 C5.59243243,18.4854054 5.28324324,17.5913514 5.65189189,16.8464865 C6.01945946,16.1048649 6.91891892,15.8043243 7.65837838,16.1697297 M7.60648649,20.1243243 C8.25945946,20.4897297 8.49189189,21.3189189 8.12540541,21.9708108 C7.75783784,22.6259459 6.93081081,22.8562162 6.27783784,22.4875676 C5.62378378,22.1221622 5.39243243,21.2972973 5.76,20.6421622 C6.12648649,19.9902703 6.95243243,19.7567568 7.60648649,20.1243243 M8.45405405,24.0681081 C8.96324324,24.3881081 9.11351351,25.0627027 8.79135135,25.5718919 C8.46918919,26.0810811 7.79783784,26.2281081 7.28972973,25.907027 C6.78378378,25.5848649 6.63027027,24.9167568 6.95351351,24.4064865 C7.27459459,23.8983784 7.94702703,23.747027 8.45405405,24.0681081 M10.2389189,27.5708108 C10.6432432,27.8583784 10.7394595,28.4183784 10.452973,28.8216216 C10.1632432,29.2302703 9.60648649,29.3221622 9.20216216,29.0356757 C8.79675676,28.7481081 8.6972973,28.1913514 8.98702703,27.7827027 C9.27459459,27.3794595 9.83459459,27.2843243 10.2389189,27.5708108 M8.67783784,12.3643243 C9.50162162,12.72 9.88108108,13.6778378 9.52540541,14.5037838 C9.16864865,15.3318919 8.21297297,15.7081081 7.39027027,15.3535135 C6.56540541,14.9978378 6.18054054,14.0443243 6.53837838,13.2151351 C6.89405405,12.3891892 7.85513514,12.0086486 8.67783784,12.3643243 M26.8854054,6.86486486 C26.5545946,6.72216216 26.4010811,6.33837838 26.5437838,6.00756757 C26.6886486,5.67243243 27.0713514,5.52216216 27.4021622,5.66486486 C27.7340541,5.80756757 27.8886486,6.19135135 27.7459459,6.52432432 C27.6021622,6.85513514 27.2172973,7.00756757 26.8854054,6.86486486 M35.1113514,23.0637838 C34.3740541,22.6983784 34.0702703,21.8010811 34.4356757,21.0616216 C34.8054054,20.3156757 35.7005405,20.0183784 36.4410811,20.3859459 C37.1794595,20.7491892 37.4854054,21.6432432 37.1167568,22.3881081 C36.7502703,23.1264865 35.8508108,23.4302703 35.1113514,23.0637838 M35.1632432,19.1102703 C34.5124324,18.7448649 34.2767568,17.9167568 34.6443243,17.2616216 C35.0140541,16.6075676 35.84,16.3794595 36.4908108,16.747027 C37.1448649,17.1135135 37.3772973,17.9362162 37.0097297,18.5913514 C36.6421622,19.2454054 35.8172973,19.4778378 35.1632432,19.1102703 M34.3178378,15.1675676 C33.8108108,14.8454054 33.6583784,14.172973 33.9794595,13.6659459 C34.3027027,13.1567568 34.9740541,13.0075676 35.4810811,13.3286486 C35.9881081,13.6497297 36.1416216,14.3189189 35.8183784,14.8302703 C35.4962162,15.3362162 34.8237838,15.4875676 34.3178378,15.1675676 M32.5318919,11.6637838 C32.1264865,11.3762162 32.0313514,10.8162162 32.3178378,10.4118919 C32.6054054,10.0054054 33.1654054,9.91135135 33.5718919,10.1978378 C33.9762162,10.4832432 34.0713514,11.0421622 33.7827027,11.4508108 C33.4972973,11.8540541 32.9372973,11.9513514 32.5318919,11.6637838 M16.2291892,33.227027 C16.0854054,33.5610811 15.7005405,33.7113514 15.3686486,33.5675676 C15.0378378,33.4259459 14.8832432,33.0421622 15.027027,32.7081081 C15.1697297,32.3783784 15.5556757,32.227027 15.8864865,32.3686486 C16.2172973,32.5124324 16.3718919,32.8972973 16.2291892,33.227027 M34.1978378,29.1578378 C33.9102703,29.9372973 33.0486486,30.3275676 32.2767568,30.04 C31.5016216,29.7545946 31.1037838,28.8972973 31.3924324,28.12 C31.68,27.3437838 32.5405405,26.9481081 33.3124324,27.2345946 C34.0875676,27.52 34.4854054,28.3827027 34.1978378,29.1578378 M31.3632432,31.6843243 C31.1394595,32.4021622 30.3794595,32.7989189 29.6659459,32.5740541 C28.9524324,32.3524324 28.5491892,31.5935135 28.7740541,30.8756757 C28.9967568,30.1610811 29.76,29.7621622 30.4724324,29.9859459 C31.1881081,30.2086486 31.5859459,30.9708108 31.3632432,31.6843243 M27.8097297,33.3989189 C27.6594595,33.9848649 27.0659459,34.332973 26.4864865,34.1837838 C25.9048649,34.0356757 25.5513514,33.4464865 25.7016216,32.8605405 C25.8497297,32.2789189 26.4443243,31.9254054 27.0248649,32.0767568 C27.6054054,32.2248649 27.9578378,32.8183784 27.8097297,33.3989189 M23.9545946,34.2378378 C23.8572973,34.7286486 23.3848649,35.04 22.8994595,34.9427027 C22.4118919,34.8454054 22.0951351,34.3762162 22.1945946,33.8864865 C22.2908108,33.4010811 22.7643243,33.0843243 23.2518919,33.1827027 C23.7372973,33.2810811 24.0518919,33.7535135 23.9545946,34.2378378 M35.3816216,23.88 C34.5567568,23.5243243 33.5989189,23.9059459 33.2421622,24.7318919 C32.8854054,25.5610811 33.2681081,26.5135135 34.0940541,26.8702703 C34.9178378,27.2248649 35.8735135,26.8486486 36.2313514,26.0194595 C36.5881081,25.1956757 36.2064865,24.2367568 35.3816216,23.88 M17.4345946,37.84 C17.3059459,38.3210811 16.812973,38.6021622 16.3318919,38.4735135 C15.8540541,38.3448649 15.5664865,37.8551351 15.6962162,37.3751351 C15.8248649,36.892973 16.32,36.6108108 16.7967568,36.7383784 C17.2778378,36.867027 17.5632432,37.3589189 17.4345946,37.84 M27.0756757,37.372973 C27.2043243,37.8540541 26.9167568,38.3448649 26.4367568,38.4735135 C25.9589189,38.6010811 25.4659459,38.3210811 25.3372973,37.8389189 C25.2086486,37.3578378 25.4940541,36.8659459 25.972973,36.7383784 C26.452973,36.6097297 26.947027,36.892973 27.0756757,37.372973 M16.7967568,2.4972973 C16.32,2.62486486 15.8259459,2.34054054 15.6962162,1.86054054 C15.5686486,1.38054054 15.8540541,0.88972973 16.3318919,0.762162162 C16.812973,0.633513514 17.307027,0.915675676 17.4345946,1.39675676 C17.5632432,1.87567568 17.2778378,2.36864865 16.7967568,2.4972973 M25.9718919,2.4972973 C25.4940541,2.36864865 25.2086486,1.87567568 25.3362162,1.39567568 C25.4648649,0.915675676 25.96,0.633513514 26.4367568,0.762162162 C26.9178378,0.88972973 27.2032432,1.38054054 27.0745946,1.86162162 C26.947027,2.34054054 26.4518919,2.62486486 25.9718919,2.4972973 M1.47783784,14.8972973 C1.4227027,13.8345946 2.23783784,12.9405405 3.28972973,12.8854054 C4.34918919,12.8302703 5.24972973,13.6335135 5.30594595,14.6972973 C5.36108108,15.7524324 4.54918919,16.6540541 3.49405405,16.7091892 C2.43783784,16.7643243 1.53297297,15.9524324 1.47783784,14.8972973 M3.52972973,10.4875676 C3.42918919,9.52864865 4.12,8.68 5.07567568,8.57837838 C6.02810811,8.47891892 6.88432432,9.16540541 6.98486486,10.1243243 C7.08540541,11.0778378 6.39135135,11.9340541 5.43783784,12.0335135 C4.48324324,12.1340541 3.63027027,11.4410811 3.52972973,10.4875676 M6.84216216,6.66702703 C6.72108108,5.9027027 7.24,5.19351351 7.99891892,5.07243243 C8.75891892,4.95243243 9.47351351,5.46702703 9.59459459,6.23027027 C9.71459459,6.99027027 9.19567568,7.70378378 8.43459459,7.82378378 C7.67567568,7.94378378 6.96216216,7.42594595 6.84216216,6.66702703 M10.947027,3.72540541 C10.812973,3.10054054 11.2118919,2.49081081 11.8313514,2.35891892 C12.452973,2.22702703 13.0637838,2.62162162 13.1967568,3.24648649 C13.3286486,3.86594595 12.9318919,4.47891892 12.3102703,4.61081081 C11.6897297,4.7427027 11.0778378,4.34486486 10.947027,3.72540541 M3.49297297,22.5264865 C4.54918919,22.5816216 5.36,23.4832432 5.30594595,24.5405405 C5.24972973,25.6032432 4.34918919,26.4075676 3.28864865,26.3513514 C2.23783784,26.2962162 1.42162162,25.4021622 1.47783784,24.3394595 C1.53297297,23.2832432 2.43783784,22.4713514 3.49297297,22.5264865 M5.43783784,27.2021622 C6.39135135,27.3027027 7.08540541,28.1578378 6.98486486,29.1113514 C6.88432432,30.0691892 6.02810811,30.7589189 5.07567568,30.6583784 C4.11891892,30.5578378 3.42810811,29.7059459 3.52972973,28.7481081 C3.62918919,27.7945946 4.48216216,27.1016216 5.43783784,27.2021622 M8.43459459,31.4097297 C9.19567568,31.5297297 9.71459459,32.2454054 9.59351351,33.0064865 C9.47351351,33.7697297 8.75891892,34.2832432 7.99783784,34.1632432 C7.23891892,34.0432432 6.72,33.3340541 6.84108108,32.5697297 C6.96108108,31.8097297 7.67459459,31.2886486 8.43459459,31.4097297 M12.3102703,34.6248649 C12.9318919,34.7578378 13.3286486,35.3675676 13.1967568,35.9902703 C13.0637838,36.6140541 12.4540541,37.0054054 11.8324324,36.8735135 C11.2118919,36.7416216 10.812973,36.1351351 10.9459459,35.5102703 C11.0778378,34.8897297 11.6897297,34.492973 12.3102703,34.6248649 M2.76216216,17.532973 C3.91027027,17.532973 4.84324324,18.467027 4.84324324,19.6194595 C4.84324324,20.7762162 3.91027027,21.7016216 2.76216216,21.7016216 C1.61405405,21.7016216 0.676756757,20.7762162 0.676756757,19.6172973 C0.676756757,18.467027 1.61405405,17.532973 2.76216216,17.532973 M21.3848649,1.83135135 C20.9243243,1.83135135 20.5481081,1.4572973 20.5481081,0.993513514 C20.5481081,0.52972973 20.9243243,0.157837838 21.3848649,0.157837838 C21.8475676,0.157837838 22.2237838,0.52972973 22.2237838,0.994594595 C22.2237838,1.4572973 21.8475676,1.83135135 21.3848649,1.83135135 M39.2756757,16.7091892 C38.2237838,16.6540541 37.4108108,15.7524324 37.4659459,14.6972973 C37.5221622,13.6335135 38.4227027,12.8302703 39.48,12.8854054 C40.532973,12.9405405 41.347027,13.8345946 41.2908108,14.8972973 C41.2367568,15.9524324 40.332973,16.7643243 39.2756757,16.7091892 M37.3308108,12.0335135 C36.3794595,11.9340541 35.6843243,11.0778378 35.7837838,10.1243243 C35.8854054,9.16540541 36.7427027,8.47891892 37.6940541,8.57837838 C38.6486486,8.68 39.3405405,9.52864865 39.24,10.4875676 C39.1394595,11.4421622 38.2854054,12.1340541 37.3308108,12.0335135 M34.3372973,7.82486486 C33.5762162,7.70378378 33.0562162,6.99027027 33.1783784,6.23027027 C33.2983784,5.46702703 34.012973,4.95243243 34.772973,5.07243243 C35.5308108,5.19351351 36.0508108,5.9027027 35.9308108,6.66702703 C35.8097297,7.42702703 35.0951351,7.94378378 34.3372973,7.82486486 M30.4605405,4.61081081 C29.8378378,4.47891892 29.4410811,3.86594595 29.572973,3.24648649 C29.7059459,2.62162162 30.3167568,2.22702703 30.9383784,2.36 C31.5589189,2.49081081 31.9567568,3.10054054 31.8237838,3.72648649 C31.6918919,4.34486486 31.0810811,4.7427027 30.4605405,4.61081081 M22.2237838,38.2410811 C22.2237838,38.7059459 21.8475676,39.0767568 21.3848649,39.0767568 C20.9243243,39.0767568 20.5481081,38.7059459 20.5481081,38.2410811 C20.5481081,37.7772973 20.9243243,37.4043243 21.3848649,37.4043243 C21.8475676,37.4043243 22.2237838,37.7772973 22.2237838,38.2410811 M41.2918919,24.3394595 C41.3481081,25.4021622 40.532973,26.2962162 39.48,26.3513514 C38.4237838,26.4075676 37.5221622,25.6032432 37.4659459,24.5405405 C37.4108108,23.4832432 38.2237838,22.5816216 39.2756757,22.5264865 C40.332973,22.4713514 41.2367568,23.2832432 41.2918919,24.3394595 M39.24,28.7481081 C39.3405405,29.7059459 38.6486486,30.5578378 37.6940541,30.6583784 C36.7437838,30.7578378 35.8854054,30.0691892 35.7837838,29.1113514 C35.6843243,28.1578378 36.3805405,27.3016216 37.3308108,27.2021622 C38.2864865,27.1016216 39.1394595,27.7945946 39.24,28.7481081 M35.9308108,32.5686486 C36.0518919,33.332973 35.5308108,34.0421622 34.7740541,34.1632432 C34.012973,34.2821622 33.2994595,33.7686486 33.1783784,33.0043243 C33.0572973,32.2443243 33.5762162,31.5286486 34.3372973,31.4086486 C35.0951351,31.2886486 35.8108108,31.8086486 35.9308108,32.5686486 M31.8237838,35.5102703 C31.9578378,36.1351351 31.5589189,36.7416216 30.9383784,36.8724324 C30.3156757,37.0054054 29.7059459,36.6140541 29.5740541,35.9902703 C29.4421622,35.3675676 29.8378378,34.7578378 30.4605405,34.6248649 C31.0810811,34.492973 31.6918919,34.8897297 31.8237838,35.5102703 M40.0064865,17.532973 C38.8562162,17.532973 37.9243243,18.467027 37.9243243,19.6194595 C37.9243243,20.7762162 38.8562162,21.7016216 40.0097297,21.7016216 C41.1589189,21.7016216 42.092973,20.7762162 42.092973,19.6172973 C42.092973,18.467027 41.1589189,17.532973 40.0064865,17.532973 M26.0994595,14.8302703 C26.4475676,15.0108108 26.5762162,15.452973 26.387027,15.7989189 C26.1956757,16.1459459 25.7632432,16.28 25.4172973,16.0886486 C25.067027,15.8994595 24.9405405,15.4637838 25.1275676,15.1167568 C25.3113514,14.7686486 25.7481081,14.6378378 26.0994595,14.8302703 M27.1264865,16.4497297 C27.4432432,16.6205405 27.5535135,17.0032432 27.3924324,17.3156757 C27.2237838,17.6237838 26.8389189,17.7427027 26.5264865,17.5740541 C26.2151351,17.4097297 26.1016216,17.0151351 26.2659459,16.7059459 C26.4367568,16.4 26.8227027,16.2843243 27.1264865,16.4497297 M27.6378378,18.3297297 C27.9091892,18.4778378 28.0064865,18.8162162 27.8583784,19.0854054 C27.7145946,19.3578378 27.3783784,19.4562162 27.107027,19.3113514 C26.8335135,19.1621622 26.7372973,18.827027 26.8778378,18.5513514 C27.0205405,18.2854054 27.3697297,18.1859459 27.6378378,18.3297297 M27.5481081,20.2810811 C27.7827027,20.4162162 27.8724324,20.7081081 27.7502703,20.9362162 C27.6227027,21.1697297 27.3308108,21.2540541 27.1027027,21.1286486 C26.867027,21.0064865 26.7783784,20.7113514 26.907027,20.4789189 C27.0281081,20.2475676 27.3232432,20.1621622 27.5481081,20.2810811 M23.1048649,14.0248649 C22.9156757,14.372973 22.4832432,14.5016216 22.1308108,14.3156757 C21.7805405,14.1308108 21.6594595,13.6962162 21.8486486,13.3437838 C22.0313514,12.9978378 22.4648649,12.8605405 22.8140541,13.0562162 C23.1664865,13.24 23.2908108,13.6778378 23.1048649,14.0248649 M21.1491892,13.9459459 C20.9848649,14.2551351 20.5945946,14.3654054 20.2810811,14.2043243 C19.9697297,14.0367568 19.8605405,13.6475676 20.0237838,13.3405405 C20.1935135,13.0281081 20.5794595,12.9135135 20.8886486,13.08 C21.2032432,13.2421622 21.3178378,13.6335135 21.1491892,13.9459459 M19.2691892,14.4497297 C19.1189189,14.7178378 18.7816216,14.8216216 18.5145946,14.6724324 C18.2378378,14.5221622 18.1405405,14.1881081 18.2897297,13.9178378 C18.4302703,13.6464865 18.7708108,13.5427027 19.0410811,13.6886486 C19.3135135,13.8410811 19.4140541,14.1827027 19.2691892,14.4497297 M17.6432432,15.4821622 C17.52,15.7124324 17.2291892,15.7956757 16.9978378,15.6745946 C16.7654054,15.5535135 16.6789189,15.2583784 16.8032432,15.0291892 C16.9254054,14.7945946 17.2162162,14.7091892 17.4486486,14.8389189 C17.68,14.9578378 17.7675676,15.2486486 17.6432432,15.4821622 M24.9708108,14.6940541 C24.7567568,15.0918919 24.2648649,15.2454054 23.8659459,15.0248649 C23.4724324,14.8151351 23.3210811,14.3221622 23.5394595,13.9254054 C23.7535135,13.5318919 24.2475676,13.3881081 24.6432432,13.5956757 C25.0356757,13.812973 25.1827027,14.3091892 24.9708108,14.6940541 M26.3491892,22.2983784 C26.452973,22.1048649 26.6951351,22.0345946 26.8843243,22.1383784 C27.08,22.2421622 27.1524324,22.48 27.0464865,22.6745946 C26.9405405,22.8713514 26.7037838,22.9437838 26.5048649,22.8443243 C26.32,22.7362162 26.2421622,22.4886486 26.3491892,22.2983784 M19.6724324,25.2205405 C19.8583784,24.867027 20.2972973,24.7416216 20.6454054,24.9254054 C20.9935135,25.1156757 21.12,25.5502703 20.9351351,25.9005405 C20.7502703,26.2475676 20.3091892,26.3805405 19.9610811,26.1902703 C19.6118919,26.0021622 19.4897297,25.5654054 19.6724324,25.2205405 M21.6313514,25.2972973 C21.7945946,24.9891892 22.1805405,24.8735135 22.4886486,25.0421622 C22.8043243,25.2118919 22.9145946,25.5956757 22.7502703,25.9048649 C22.587027,26.212973 22.1989189,26.3318919 21.8886486,26.16 C21.5762162,25.9945946 21.467027,25.6097297 21.6313514,25.2972973 M23.507027,24.7945946 C23.652973,24.5243243 23.9989189,24.4248649 24.2605405,24.5718919 C24.5383784,24.72 24.6367568,25.0572973 24.4886486,25.3275676 C24.3459459,25.5989189 24.0032432,25.6983784 23.7372973,25.5567568 C23.4648649,25.4054054 23.3610811,25.0637838 23.507027,24.7945946 M25.1297297,23.7621622 C25.2551351,23.5308108 25.5437838,23.4454054 25.7827027,23.5643243 C26.012973,23.6962162 26.1027027,23.9848649 25.9772973,24.2172973 C25.8486486,24.4497297 25.56,24.5394595 25.3297297,24.4108108 C25.0908108,24.2810811 25.0064865,23.9924324 25.1297297,23.7621622 M15.8897297,17.1059459 C15.6940541,17.0032432 15.6237838,16.7610811 15.7286486,16.5621622 C15.8335135,16.3708108 16.0724324,16.2983784 16.2713514,16.4 C16.4627027,16.5091892 16.5351351,16.7502703 16.4291892,16.9448649 C16.3232432,17.1351351 16.0810811,17.2108108 15.8897297,17.1059459 M16.6821622,24.4194595 C16.3286486,24.227027 16.1989189,23.7989189 16.3891892,23.4432432 C16.5783784,23.0983784 17.0075676,22.9664865 17.3556757,23.1545946 C17.7113514,23.3427027 17.84,23.7805405 17.6518919,24.1243243 C17.467027,24.4735135 17.0281081,24.6108108 16.6821622,24.4194595 M15.6475676,22.7924324 C15.3372973,22.6248649 15.2227027,22.2367568 15.3848649,21.9297297 C15.5556757,21.6216216 15.9416216,21.5027027 16.2497297,21.6713514 C16.5610811,21.8367568 16.6789189,22.2259459 16.5113514,22.5362162 C16.3394595,22.8432432 15.9556757,22.9578378 15.6475676,22.7924324 M15.1405405,20.9113514 C14.8724324,20.7675676 14.772973,20.4281081 14.9167568,20.16 C15.067027,19.8854054 15.4032432,19.787027 15.6745946,19.9318919 C15.9437838,20.0789189 16.0464865,20.4227027 15.9005405,20.6886486 C15.7535135,20.9610811 15.4162162,21.0616216 15.1405405,20.9113514 M15.2216216,18.9567568 C14.9924324,18.8291892 14.9048649,18.5372973 15.0302703,18.307027 C15.1578378,18.0713514 15.4486486,17.9902703 15.6767568,18.1189189 C15.9091892,18.2367568 16.0032432,18.532973 15.8713514,18.7643243 C15.7427027,18.9935135 15.4583784,19.0821622 15.2216216,18.9567568 M19.2367568,25.3145946 C19.4475676,24.9221622 19.3048649,24.4291892 18.9102703,24.2151351 C18.5102703,24.0010811 18.0205405,24.1535135 17.8064865,24.547027 C17.5902703,24.9394595 17.7394595,25.4335135 18.132973,25.6464865 C18.5286486,25.8605405 19.0259459,25.7124324 19.2367568,25.3145946 M21.3675676,10.4713514 C21.8518919,10.3254054 22.3589189,10.6032432 22.4962162,11.0832432 C22.6356757,11.5675676 22.3654054,12.0735135 21.8821622,12.2151351 C21.3956757,12.3578378 20.8908108,12.0810811 20.7481081,11.5956757 C20.6075676,11.1178378 20.8854054,10.6140541 21.3675676,10.4713514 M23.9383784,11.0443243 C24.3718919,10.9178378 24.8183784,11.1621622 24.9459459,11.5935135 C25.0713514,12.0194595 24.8291892,12.4691892 24.3967568,12.5956757 C23.9675676,12.7254054 23.5135135,12.4767568 23.3891892,12.0486486 C23.2637838,11.6183784 23.5124324,11.1697297 23.9383784,11.0443243 M26.2627027,12.4518919 C26.5989189,12.3513514 26.9524324,12.5459459 27.0508108,12.88 C27.1535135,13.2216216 26.9589189,13.5762162 26.6227027,13.6735135 C26.2832432,13.7762162 25.9286486,13.5783784 25.827027,13.2421622 C25.7308108,12.907027 25.9264865,12.5524324 26.2627027,12.4518919 M28.0724324,14.4486486 C28.3502703,14.3686486 28.6378378,14.5254054 28.7178378,14.7978378 C28.7967568,15.0691892 28.6410811,15.3589189 28.3675676,15.4410811 C28.0962162,15.5189189 27.8075676,15.3632432 27.7264865,15.0897297 C27.6475676,14.8151351 27.8032432,14.5264865 28.0724324,14.4486486 M17.5891892,12.5264865 C17.7286486,13.0054054 17.4540541,13.5167568 16.9686486,13.6572973 C16.4843243,13.7989189 15.9837838,13.5232432 15.8421622,13.0367568 C15.7005405,12.5589189 15.9718919,12.052973 16.4572973,11.9102703 C16.9416216,11.7708108 17.4464865,12.0464865 17.5891892,12.5264865 M15.6118919,14.332973 C15.7372973,14.7610811 15.4875676,15.2151351 15.0583784,15.3427027 C14.6291892,15.4681081 14.1848649,15.2194595 14.0551351,14.7902703 C13.9286486,14.3621622 14.1718919,13.9135135 14.6032432,13.7859459 C15.0367568,13.6572973 15.4821622,13.9037838 15.6118919,14.332973 M14.2043243,16.6583784 C14.3037838,16.9956757 14.1091892,17.3491892 13.7740541,17.4432432 C13.4313514,17.5459459 13.0778378,17.3535135 12.9837838,17.0140541 C12.8886486,16.6778378 13.0713514,16.3221622 13.4140541,16.2227027 C13.7491892,16.1210811 14.1048649,16.3178378 14.2043243,16.6583784 M13.6064865,19.2367568 C13.6875676,19.5091892 13.532973,19.7945946 13.2583784,19.8789189 C12.9859459,19.9589189 12.6994595,19.7989189 12.6151351,19.5264865 C12.5318919,19.2551351 12.6940541,18.9708108 12.9664865,18.8897297 C13.2378378,18.8075676 13.5243243,18.9610811 13.6064865,19.2367568 M20.0594595,11.3783784 C20.2216216,11.9351351 19.9081081,12.5178378 19.3481081,12.6810811 C18.7924324,12.8421622 18.2108108,12.5264865 18.0508108,11.9718919 C17.8908108,11.4118919 18.2010811,10.8345946 18.7610811,10.6702703 C19.3156757,10.5102703 19.9005405,10.8291892 20.0594595,11.3783784 M28.9578378,17.3913514 C28.9016216,17.1881081 29.0162162,16.9718919 29.2172973,16.9135135 C29.4248649,16.852973 29.6367568,16.9697297 29.6962162,17.1762162 C29.7578378,17.3794595 29.6410811,17.5945946 29.4356757,17.6540541 C29.2345946,17.7124324 29.0183784,17.5956757 28.9578378,17.3913514 M25.187027,26.7037838 C25.0432432,26.2216216 25.3221622,25.7156757 25.8043243,25.572973 C26.2886486,25.4313514 26.7935135,25.7124324 26.9351351,26.1935135 C27.0789189,26.6745946 26.8032432,27.1816216 26.3210811,27.3232432 C25.8345946,27.4659459 25.3308108,27.1848649 25.187027,26.7037838 M27.1654054,24.9005405 C27.0378378,24.4648649 27.2854054,24.0194595 27.7124324,23.892973 C28.1427027,23.7664865 28.5902703,24.0162162 28.7178378,24.4443243 C28.8464865,24.8702703 28.6010811,25.32 28.1686486,25.4454054 C27.7427027,25.5718919 27.2951351,25.3254054 27.1654054,24.9005405 M28.5708108,22.5783784 C28.467027,22.2356757 28.667027,21.8821622 29.0032432,21.7837838 C29.3437838,21.6843243 29.6951351,21.8778378 29.7945946,22.2162162 C29.8940541,22.5545946 29.7016216,22.9081081 29.3643243,23.0054054 C29.0259459,23.1059459 28.667027,22.9135135 28.5708108,22.5783784 M29.1675676,19.9967568 C29.0854054,19.7264865 29.2410811,19.4356757 29.5189189,19.3567568 C29.7924324,19.2756757 30.0778378,19.4335135 30.1589189,19.7081081 C30.2378378,19.9772973 30.0843243,20.2659459 29.8097297,20.347027 C29.5362162,20.4259459 29.2443243,20.2691892 29.1675676,19.9967568 M13.5524324,22.3178378 C13.3491892,22.3783784 13.1351351,22.2616216 13.0778378,22.0583784 C13.0172973,21.852973 13.1308108,21.6356757 13.3362162,21.5762162 C13.5427027,21.5167568 13.7556757,21.6356757 13.8151351,21.84 C13.8745946,22.0443243 13.76,22.2572973 13.5524324,22.3178378 M21.4097297,28.7632432 C20.9221622,28.9091892 20.4227027,28.6291892 20.2778378,28.1481081 C20.1351351,27.6648649 20.4086486,27.1610811 20.892973,27.0172973 C21.3762162,26.8745946 21.88,27.1535135 22.0237838,27.6324324 C22.1686486,28.1145946 21.8918919,28.6237838 21.4097297,28.7632432 M18.8367568,28.1881081 C18.4043243,28.3124324 17.9567568,28.0659459 17.8291892,27.6410811 C17.7037838,27.2118919 17.9513514,26.7621622 18.3805405,26.6356757 C18.8086486,26.5091892 19.2605405,26.7513514 19.3848649,27.1837838 C19.507027,27.6108108 19.2605405,28.0616216 18.8367568,28.1881081 M16.5124324,26.7816216 C16.1718919,26.8821622 15.8216216,26.6854054 15.7232432,26.3491892 C15.6237838,26.0097297 15.8151351,25.6583784 16.1545946,25.5578378 C16.4918919,25.4583784 16.8464865,25.6540541 16.947027,25.9902703 C17.0443243,26.3264865 16.8508108,26.6810811 16.5124324,26.7816216 M14.6994595,24.7881081 C14.4259459,24.8616216 14.1383784,24.7091892 14.0572973,24.4345946 C13.9762162,24.1632432 14.1351351,23.8767568 14.4075676,23.7978378 C14.6810811,23.7178378 14.9654054,23.8724324 15.0475676,24.1448649 C15.132973,24.4172973 14.9708108,24.7037838 14.6994595,24.7881081 M24.7221622,27.2562162 C24.5610811,26.7059459 23.9805405,26.3891892 23.4259459,26.5535135 C22.8637838,26.7189189 22.5567568,27.2962162 22.7178378,27.852973 C22.8778378,28.4054054 23.4583784,28.7254054 24.0162162,28.5643243 C24.572973,28.4 24.8908108,27.8162162 24.7221622,27.2562162 M15.8767568,8.79027027 C16.3459459,8.34702703 17.0864865,8.37081081 17.5254054,8.83891892 C17.9654054,9.31027027 17.9491892,10.0486486 17.4756757,10.4908108 C17.0054054,10.932973 16.2648649,10.9091892 15.8248649,10.4389189 C15.3837838,9.97513514 15.4043243,9.23459459 15.8767568,8.79027027 M19.2756757,7.92432432 C19.6972973,7.52648649 20.3502703,7.54594595 20.7427027,7.96324324 C21.1372973,8.37945946 21.12,9.03891892 20.7016216,9.43135135 C20.2843243,9.82702703 19.6237838,9.80324324 19.2302703,9.38918919 C18.8378378,8.97297297 18.8572973,8.31135135 19.2756757,7.92432432 M22.8778378,8.18378378 C23.2075676,7.87243243 23.7243243,7.89297297 24.0335135,8.21945946 C24.3427027,8.54486486 24.3308108,9.06378378 24.0010811,9.37297297 C23.6691892,9.68324324 23.1524324,9.66702703 22.8421622,9.3372973 C22.5351351,9.01189189 22.5502703,8.49297297 22.8778378,8.18378378 M26.2335135,9.45837838 C26.5027027,9.20756757 26.9221622,9.22054054 27.1708108,9.48756757 C27.4216216,9.75027027 27.4097297,10.1686486 27.1416216,10.4216216 C26.8767568,10.6724324 26.4572973,10.6605405 26.2075676,10.3945946 C25.9556757,10.1275676 25.9686486,9.70810811 26.2335135,9.45837838 M12.5589189,13.5145946 C13.0010811,13.9837838 12.9783784,14.7264865 12.5102703,15.1664865 C12.0389189,15.6140541 11.3016216,15.5816216 10.8616216,15.1156757 C10.4183784,14.6497297 10.4345946,13.9113514 10.9059459,13.4648649 C11.3794595,13.0248649 12.12,13.0486486 12.5589189,13.5145946 M11.3027027,16.8540541 C11.6972973,17.2691892 11.6778378,17.9286486 11.2594595,18.3264865 C10.8410811,18.7210811 10.1859459,18.6962162 9.78918919,18.2810811 C9.39891892,17.8659459 9.4172973,17.2043243 9.83459459,16.8118919 C10.2540541,16.4162162 10.9102703,16.4378378 11.3027027,16.8540541 M11.0410811,20.4551351 C11.3502703,20.7827027 11.3318919,21.3037838 11.0064865,21.6118919 C10.6735135,21.9243243 10.1556757,21.907027 9.84972973,21.5762162 C9.54486486,21.2454054 9.55351351,20.7340541 9.88324324,20.4227027 C10.2108108,20.1113514 10.7308108,20.1308108 11.0410811,20.4551351 M11.892973,23.8767568 C12.1394595,24.1427027 12.1297297,24.5610811 11.8627027,24.8118919 C11.5967568,25.0648649 11.1794595,25.0486486 10.9286486,24.787027 C10.6745946,24.5221622 10.6886486,24.1037838 10.9578378,23.8508108 C11.2216216,23.6021622 11.64,23.612973 11.892973,23.8767568 M14.8010811,10.6659459 C15.3102703,11.2075676 15.2843243,12.0540541 14.7448649,12.5664865 C14.2010811,13.0767568 13.3524324,13.0486486 12.8454054,12.5102703 C12.3383784,11.9643243 12.3621622,11.1232432 12.9037838,10.6097297 C13.4432432,10.1005405 14.2940541,10.1243243 14.8010811,10.6659459 M29.0583784,12.3913514 C28.8724324,12.1935135 28.8821622,11.88 29.08,11.692973 C29.28,11.5091892 29.5902703,11.5167568 29.7762162,11.7189189 C29.9643243,11.9145946 29.9567568,12.227027 29.7545946,12.4118919 C29.5610811,12.6010811 29.2443243,12.5913514 29.0583784,12.3913514 M30.212973,25.72 C29.7708108,25.2508108 29.7913514,24.5113514 30.2637838,24.0691892 C30.7340541,23.6248649 31.4735135,23.6518919 31.9135135,24.1189189 C32.3578378,24.5902703 32.3362162,25.3243243 31.8627027,25.7708108 C31.3978378,26.212973 30.6572973,26.1881081 30.212973,25.72 M31.4702703,22.3816216 C31.0756757,21.9643243 31.0962162,21.307027 31.5156757,20.9145946 C31.9318919,20.5178378 32.5902703,20.5416216 32.9827027,20.9589189 C33.3783784,21.372973 33.3567568,22.0324324 32.9383784,22.4259459 C32.52,22.8183784 31.8627027,22.8 31.4702703,22.3816216 M31.7308108,18.7794595 C31.4237838,18.4508108 31.4421622,17.9340541 31.7686486,17.6259459 C32.1016216,17.3135135 32.6140541,17.3318919 32.9243243,17.6605405 C33.2335135,17.9881081 33.2216216,18.5037838 32.8886486,18.8151351 C32.5621622,19.1232432 32.0421622,19.107027 31.7308108,18.7794595 M30.8821622,15.3589189 C30.6313514,15.0940541 30.6432432,14.6735135 30.9091892,14.4205405 C31.1783784,14.1697297 31.5978378,14.1837838 31.8486486,14.4518919 C32.0972973,14.7167568 32.0864865,15.1362162 31.8205405,15.3891892 C31.5513514,15.6378378 31.132973,15.6259459 30.8821622,15.3589189 M13.6940541,27.5416216 C13.4918919,27.7264865 13.1816216,27.7178378 12.9967568,27.5210811 C12.8075676,27.3221622 12.8172973,27.0108108 13.0151351,26.8237838 C13.2172973,26.6345946 13.5286486,26.6443243 13.7124324,26.8432432 C13.9005405,27.0432432 13.8918919,27.3535135 13.6940541,27.5416216 M26.9016216,30.4454054 C26.4248649,30.892973 25.6918919,30.8659459 25.2497297,30.3978378 C24.8075676,29.9286486 24.827027,29.1924324 25.2962162,28.7459459 C25.7654054,28.3037838 26.5091892,28.3264865 26.9491892,28.7945946 C27.3902703,29.2627027 27.3708108,30.0043243 26.9016216,30.4454054 M23.4962162,31.3167568 C23.0778378,31.7102703 22.4227027,31.6875676 22.0281081,31.2745946 C21.6367568,30.8562162 21.6551351,30.1989189 22.0745946,29.8054054 C22.4918919,29.4108108 23.1502703,29.4313514 23.5405405,29.8475676 C23.9340541,30.2681081 23.9113514,30.9221622 23.4962162,31.3167568 M19.8962162,31.0540541 C19.5643243,31.3632432 19.0486486,31.3448649 18.7405405,31.0183784 C18.4313514,30.6886486 18.4454054,30.1740541 18.7762162,29.8605405 C19.1016216,29.5535135 19.6216216,29.5697297 19.9318919,29.8983784 C20.2389189,30.2248649 20.2237838,30.7448649 19.8962162,31.0540541 M16.5394595,29.7772973 C16.2713514,30.027027 15.8518919,30.0151351 15.6021622,29.7502703 C15.3524324,29.4832432 15.3643243,29.0691892 15.6291892,28.8151351 C15.8972973,28.5654054 16.3156757,28.5772973 16.5664865,28.8432432 C16.8172973,29.107027 16.8032432,29.5275676 16.5394595,29.7772973 M29.9264865,26.7243243 C29.4194595,26.1891892 28.5675676,26.1610811 28.0281081,26.6724324 C27.4854054,27.1837838 27.4648649,28.0324324 27.9751351,28.5708108 C28.4821622,29.1102703 29.3297297,29.1383784 29.8724324,28.6291892 C30.4108108,28.1189189 30.4367568,27.2702703 29.9264865,26.7243243" id="Shape" fill="#F57A14"></path>
        </g>
    </g>
</svg>