<svg id="Layer_1" data-name="Layer 1" xmlns="http://www.w3.org/2000/svg" xmlns:xlink="http://www.w3.org/1999/xlink" viewBox="0 0 150.81 35"><defs><style>.cls-1{fill:url(#linear-gradient);}.cls-2{fill:#6700e8;}.cls-3{fill:url(#linear-gradient-2);}.cls-4{fill:url(#linear-gradient-3);}.cls-5{fill:url(#linear-gradient-4);}.cls-6{fill:url(#linear-gradient-5);}.cls-7{fill:url(#linear-gradient-6);}.cls-8{fill:url(#linear-gradient-7);}.cls-9{fill:url(#linear-gradient-8);}.cls-10{fill:url(#linear-gradient-9);}.cls-11{fill:url(#linear-gradient-10);}.cls-12{fill:url(#linear-gradient-11);}.cls-13{fill:#200045;}.cls-14{fill:url(#linear-gradient-12);}.cls-15{fill:url(#linear-gradient-13);}.cls-16{fill:url(#linear-gradient-14);}.cls-17{fill:url(#linear-gradient-15);}.cls-18{fill:url(#linear-gradient-16);}.cls-19{fill:url(#linear-gradient-17);}.cls-20{fill:url(#linear-gradient-18);}.cls-21{fill:url(#linear-gradient-19);}.cls-22{fill:url(#linear-gradient-20);}.cls-23{fill:url(#radial-gradient);}.cls-24{fill:url(#linear-gradient-21);}.cls-25{fill:url(#linear-gradient-22);}.cls-26{fill:url(#radial-gradient-2);}</style><linearGradient id="linear-gradient" x1="-210.26" y1="-1813.69" x2="-203.15" y2="-1774.39" gradientTransform="matrix(0.61, 0, 0, -0.61, 273.74, -1079.14)" gradientUnits="userSpaceOnUse"><stop offset="0" stop-color="#210045"/><stop offset="0.59" stop-color="#430085"/><stop offset="1" stop-color="#5000b2"/></linearGradient><linearGradient id="linear-gradient-2" x1="-392.06" y1="-1777.38" x2="-370.96" y2="-1820.43" gradientTransform="matrix(0.61, 0, 0, -0.61, 273.74, -1079.14)" gradientUnits="userSpaceOnUse"><stop offset="0" stop-color="#5500bd"/><stop offset="1" stop-color="#5000ac"/></linearGradient><linearGradient id="linear-gradient-3" x1="-385.26" y1="-1799.28" x2="-382.51" y2="-1798.23" gradientTransform="matrix(0.61, 0, 0, -0.61, 273.74, -1079.14)" gradientUnits="userSpaceOnUse"><stop offset="0" stop-color="#2a005a"/><stop offset="1" stop-color="#210046"/></linearGradient><linearGradient id="linear-gradient-4" x1="-408.35" y1="-1819.76" x2="-393.83" y2="-1782.23" gradientTransform="matrix(0.61, 0, 0, -0.61, 273.74, -1079.14)" gradientUnits="userSpaceOnUse"><stop offset="0" stop-color="#21004e"/><stop offset="1" stop-color="#39007f"/></linearGradient><linearGradient id="linear-gradient-5" x1="-415.8" y1="-1785.11" x2="-412.97" y2="-1786.8" gradientTransform="matrix(0.61, 0, 0, -0.61, 273.74, -1079.14)" gradientUnits="userSpaceOnUse"><stop offset="0" stop-color="#1b0041"/><stop offset="1" stop-color="#21004f"/></linearGradient><linearGradient id="linear-gradient-6" x1="-410.02" y1="-1769.37" x2="-425.13" y2="-1800.98" gradientTransform="matrix(0.61, 0, 0, -0.61, 273.74, -1079.14)" gradientUnits="userSpaceOnUse"><stop offset="0" stop-color="#5500bd"/><stop offset="1" stop-color="#47008d"/></linearGradient><linearGradient id="linear-gradient-7" x1="-440.8" y1="-1769.88" x2="-425.77" y2="-1801.27" gradientTransform="matrix(0.61, 0, 0, -0.61, 273.74, -1079.14)" gradientUnits="userSpaceOnUse"><stop offset="0" stop-color="#5100b2"/><stop offset="1" stop-color="#5500bd"/></linearGradient><linearGradient id="linear-gradient-8" x1="-438.15" y1="-1786.84" x2="-435.43" y2="-1785.03" gradientTransform="matrix(0.61, 0, 0, -0.61, 273.74, -1079.14)" gradientUnits="userSpaceOnUse"><stop offset="0" stop-color="#27005d" stop-opacity="0.98"/><stop offset="0.32" stop-color="#2b005d"/><stop offset="0.6" stop-color="#280055"/><stop offset="0.81" stop-color="#24004d"/><stop offset="1" stop-color="#230049"/></linearGradient><linearGradient id="linear-gradient-9" x1="-425.92" y1="-1801.08" x2="-422.66" y2="-1826.75" gradientTransform="matrix(0.61, 0, 0, -0.61, 273.74, -1079.14)" gradientUnits="userSpaceOnUse"><stop offset="0" stop-color="#5500bd"/><stop offset="1" stop-color="#5300b5"/></linearGradient><linearGradient id="linear-gradient-10" x1="-427.02" y1="-1801.2" x2="-427.02" y2="-1826.6" gradientTransform="matrix(0.61, 0, 0, -0.61, 273.74, -1079.14)" gradientUnits="userSpaceOnUse"><stop offset="0" stop-color="#210045"/><stop offset="0.25" stop-color="#25004d"/><stop offset="0.5" stop-color="#2b005c"/><stop offset="0.75" stop-color="#340071"/><stop offset="1" stop-color="#3e0088"/></linearGradient><linearGradient id="linear-gradient-11" x1="-412.87" y1="-1820.35" x2="-391.26" y2="-1777.09" gradientTransform="matrix(0.61, 0, 0, -0.61, 273.74, -1079.14)" gradientUnits="userSpaceOnUse"><stop offset="0" stop-color="#4d00a1"/><stop offset="1" stop-color="#5200b4"/></linearGradient><linearGradient id="linear-gradient-12" x1="-403.11" y1="-1805.46" x2="-379.71" y2="-1805.46" gradientTransform="matrix(0.61, 0, 0, -0.61, 273.74, -1079.14)" gradientUnits="userSpaceOnUse"><stop offset="0" stop-color="#6700e8"/><stop offset="0.51" stop-color="#6700e8"/><stop offset="1" stop-color="#6700e8"/></linearGradient><linearGradient id="linear-gradient-13" x1="-362.92" y1="-1798.06" x2="-359.11" y2="-1798.06" gradientTransform="matrix(0.61, 0, 0, -0.61, 273.74, -1079.14)" gradientUnits="userSpaceOnUse"><stop offset="0" stop-color="#5a00c9"/><stop offset="1" stop-color="#4f00a8"/></linearGradient><linearGradient id="linear-gradient-14" x1="-366.6" y1="-1798.06" x2="-362.83" y2="-1798.06" gradientTransform="matrix(0.61, 0, 0, -0.61, 273.74, -1079.14)" gradientUnits="userSpaceOnUse"><stop offset="0" stop-color="#390080"/><stop offset="0.5" stop-color="#31006e"/><stop offset="1" stop-color="#250056"/></linearGradient><linearGradient id="linear-gradient-15" x1="-335.02" y1="-1798.06" x2="-331.11" y2="-1798.06" gradientTransform="matrix(0.61, 0, 0, -0.61, 273.74, -1079.14)" gradientUnits="userSpaceOnUse"><stop offset="0" stop-color="#3f008b"/><stop offset="1" stop-color="#220050"/></linearGradient><linearGradient id="linear-gradient-16" x1="-362.85" y1="-1797.73" x2="-331.18" y2="-1797.73" gradientTransform="matrix(0.61, 0, 0, -0.61, 273.74, -1079.14)" gradientUnits="userSpaceOnUse"><stop offset="0" stop-color="#6700e8"/><stop offset="0.5" stop-color="#6700e8"/><stop offset="1" stop-color="#6700e8"/></linearGradient><linearGradient id="linear-gradient-17" x1="-288.76" y1="-1780.28" x2="-313.05" y2="-1816.05" gradientTransform="matrix(0.61, 0, 0, -0.61, 273.74, -1079.14)" gradientUnits="userSpaceOnUse"><stop offset="0" stop-color="#1c0044"/><stop offset="0.1" stop-color="#2f0065"/><stop offset="0.2" stop-color="#34006d"/><stop offset="0.3" stop-color="#3b007a"/><stop offset="0.4" stop-color="#3c007a"/><stop offset="0.5" stop-color="#490096"/><stop offset="0.6" stop-color="#5000ab"/><stop offset="0.7" stop-color="#5400ba"/><stop offset="0.8" stop-color="#5500bc"/><stop offset="0.9" stop-color="#5700c2"/><stop offset="1" stop-color="#5c00ce"/></linearGradient><linearGradient id="linear-gradient-18" x1="-316.07" y1="-1817.34" x2="-285.66" y2="-1779.27" gradientTransform="matrix(0.61, 0, 0, -0.61, 273.74, -1079.14)" gradientUnits="userSpaceOnUse"><stop offset="0" stop-color="#1b0041"/><stop offset="0.1" stop-color="#1b0041"/><stop offset="0.2" stop-color="#1b0041"/><stop offset="0.3" stop-color="#240052"/><stop offset="0.4" stop-color="#32006a"/><stop offset="0.5" stop-color="#3d007d"/><stop offset="0.6" stop-color="#490098"/><stop offset="0.7" stop-color="#4f00a8"/><stop offset="0.8" stop-color="#5500bc"/><stop offset="0.9" stop-color="#5700c2"/><stop offset="1" stop-color="#6000da"/></linearGradient><linearGradient id="linear-gradient-19" x1="-234.21" y1="-1776.93" x2="-256.95" y2="-1819.89" gradientTransform="matrix(0.61, 0, 0, -0.61, 273.74, -1079.14)" gradientUnits="userSpaceOnUse"><stop offset="0" stop-color="#1e0046"/><stop offset="0.1" stop-color="#2d0061"/><stop offset="0.2" stop-color="#33006b"/><stop offset="0.3" stop-color="#400082"/><stop offset="0.4" stop-color="#490096"/><stop offset="0.5" stop-color="#5000ac"/><stop offset="0.6" stop-color="#5500bd"/><stop offset="0.7" stop-color="#4f00a8"/><stop offset="0.8" stop-color="#5500bc"/><stop offset="0.9" stop-color="#5700c2"/><stop offset="1" stop-color="#6000da"/></linearGradient><linearGradient id="linear-gradient-20" x1="-260.04" y1="-1821.44" x2="-231.2" y2="-1775.52" xlink:href="#linear-gradient-18"/><radialGradient id="radial-gradient" cx="1195.27" cy="-2108.92" r="3.77" gradientTransform="matrix(-0.22, 0.74, 0.78, 0.23, 2056.27, -372.97)" gradientUnits="userSpaceOnUse"><stop offset="0" stop-color="#6000d8"/><stop offset="0.21" stop-color="#5c00cd"/><stop offset="0.37" stop-color="#5500be"/><stop offset="0.72" stop-color="#2d0062"/><stop offset="1" stop-color="#210045"/></radialGradient><linearGradient id="linear-gradient-21" x1="-212.06" y1="-1813.91" x2="-206.4" y2="-1774.86" gradientTransform="matrix(0.61, 0, 0, -0.61, 273.74, -1079.14)" gradientUnits="userSpaceOnUse"><stop offset="0" stop-color="#47008d"/><stop offset="1" stop-color="#5100b3"/></linearGradient><linearGradient id="linear-gradient-22" x1="-331.2" y1="-1798.06" x2="-327.42" y2="-1798.06" gradientTransform="matrix(0.61, 0, 0, -0.61, 273.74, -1079.14)" gradientUnits="userSpaceOnUse"><stop offset="0" stop-color="#5500bd"/><stop offset="1" stop-color="#5200b2"/></linearGradient><radialGradient id="radial-gradient-2" cx="1440.15" cy="-362.5" r="3.4" gradientTransform="matrix(-0.81, -0.14, -0.1, 0.58, 1275.41, 419.38)" gradientUnits="userSpaceOnUse"><stop offset="0" stop-color="#6700e8"/><stop offset="0.4" stop-color="#5c00ce"/><stop offset="0.7" stop-color="#5600bf" stop-opacity="0.05"/><stop offset="1" stop-color="#220047" stop-opacity="0"/></radialGradient></defs><title>logo-yahoo</title><path id="path3223" class="cls-1" d="M149.47,0.4a2.06,2.06,0,0,1,1.93,2.12A7.68,7.68,0,0,1,151.13,4c-0.77,3.42-3.8,15.49-5.08,23.54l-1.17-1.17,3.73-24.78Z" transform="translate(-0.6)"/><path id="path3201" class="cls-2" d="M74.06,3.68a9.71,9.71,0,0,1-4.6,0l2.39,2.49Z" transform="translate(-0.6)"/><path id="path3193" class="cls-2" d="M50.13,3.68a9.71,9.71,0,0,0,4.6,0L52.34,6.17Z" transform="translate(-0.6)"/><path id="path3181" class="cls-3" d="M36.62,3.67c3.53,8.93,9.08,22.46,11.85,27.62L44.37,30,34.23,4.69Z" transform="translate(-0.6)"/><path id="path3175" class="cls-2" d="M33.41,3.67a4.56,4.56,0,0,0,3.21,0l-2.28,1.4Z" transform="translate(-0.6)"/><path id="path3177" class="cls-4" d="M35,4.65L45.36,30a5.2,5.2,0,0,1-1.48,1.32c-3-7.71-6.21-15.43-8.93-23L33.6,6Z" transform="translate(-0.6)"/><path id="path3173" class="cls-5" d="M26.14,31.3l-3-1.08L33.83,5,35,4.65V8.38c-1.67,4.82-5.91,15.39-8.89,22.92h0Z" transform="translate(-0.6)"/><path id="path3167" class="cls-2" d="M23.61,0l1,2.3L27.2,1.1l1-1.1A9.51,9.51,0,0,1,23.61,0Z" transform="translate(-0.6)"/><path id="path3165" class="cls-6" d="M16.34,20.07l-1.75.64-1.1-1.93,11-17.49L25.22,1a9.61,9.61,0,0,0,3-1c-1.74,2.35-8.08,13.34-11.91,20.07h0Z" transform="translate(-0.6)"/><path id="path3163" class="cls-7" d="M13.95,19.79l0.46-.46L25.24,1,23.61,0c-1.31,2.44-6.13,10.32-9.21,15.37l-1.47,2.76Z" transform="translate(-0.6)"/><path id="path3161" class="cls-8" d="M5.2,0c2.4,4.26,6.09,10.21,9.21,15.37v4l-0.74.74L2.9,0.92Z" transform="translate(-0.6)"/><path id="path3159" class="cls-2" d="M3.42,1.16L5.2,0A8.58,8.58,0,0,1,.6,0L1.33,0.83Z" transform="translate(-0.6)"/><path id="path3157" class="cls-9" d="M14.41,19.33l-0.83,1.2-1.1-.46C10.42,16.51,4.37,5.69.6,0a7,7,0,0,0,3,1.05Z" transform="translate(-0.6)"/><path id="path3155" class="cls-10" d="M16.62,34.89l-3.13-1.47,0.28-13.07,0.64-1,1.93,0.74Z" transform="translate(-0.6)"/><path id="path3153" class="cls-11" d="M14.41,33.88l-2.21,1,0.28-14.82,1.93-.74V33.88Z" transform="translate(-0.6)"/><path id="path3171" class="cls-12" d="M21.59,31.3C25.43,23.47,29.7,13,33.41,3.67l1.62,1L24.54,30.3,22.42,31Z" transform="translate(-0.6)"/><path id="path3179" class="cls-13" d="M45.25,29.94l3.22,1.36a9.46,9.46,0,0,0-4.59,0l0.63-1.55Z" transform="translate(-0.6)"/><path id="path3185" class="cls-14" d="M27.85,22.24l2.27-1q4.9,0.17,9.79,0l2.3,1-2.14.47H29.47Z" transform="translate(-0.6)"/><path id="path3183" class="cls-13" d="M29.36,23.2l-1.52-1q7.17-.11,14.37,0l-1.52.93C36.91,23.08,33.13,23.09,29.36,23.2Z" transform="translate(-0.6)"/><path id="path3191" class="cls-15" d="M54.73,31.3l-3.22-1.1V5.43L52.43,5l2.3-1.29A263.51,263.51,0,0,0,54.73,31.3Z" transform="translate(-0.6)"/><path id="path3189" class="cls-16" d="M52.43,30v0.64l-2.3.64c0.37-9.19.4-18.4,0-27.62L52.43,5V30Z" transform="translate(-0.6)"/><path id="path3199" class="cls-17" d="M69.45,31.3l3.22-1.1V5.43L71.75,5l-2.3-1.29A263.47,263.47,0,0,1,69.45,31.3Z" transform="translate(-0.6)"/><path id="path3205" class="cls-18" d="M52.44,17.43l1.93-.86c5.14,0.13,10.29.12,15.44,0l1.94,0.86-2.4.57h-15Z" transform="translate(-0.6)"/><path id="path3207" class="cls-19" d="M90.3,3.67c-9,0-13.55,5.65-13.55,13.87,0,10.29,6.83,13.86,13.44,13.86,7.85,0,13.47-4.42,13.47-13.84,0-9.07-5.33-13.9-13.35-13.9h0ZM90,5h0.26c6,0,10.36,4.07,10.36,12.57S96.27,30.11,90.3,30.11C83.79,30.11,80,25.44,80,17.57,80,8.68,84.68,5.09,90,5Z" transform="translate(-0.6)"/><path id="path3209" class="cls-20" d="M90.27,3.31c-9.77,0-14.89,6.19-14.89,14.22,0,8.79,5.59,14.14,14.87,14.14,10,0,14.93-6,14.93-14.05C105.19,8.69,99.34,3.31,90.27,3.31Zm0,0.91c7.71,0,12.82,4.64,12.82,13.34,0,9-5.4,13.29-12.94,13.29-6.34,0-12.9-3.42-12.9-13.31,0-7.89,4.33-13.32,13-13.32h0Z" transform="translate(-0.6)"/><path id="path3213" class="cls-21" d="M124,2.26c-9.18,0-15.46,5.19-15.46,15.3,0,9.92,5.85,15.46,15.5,15.46,7.31,0,15.32-3.75,15.32-15.32C139.4,5.22,130.65,2.26,124,2.26Zm0,1.1c7.3,0,12.68,4.44,12.68,14.22,0,10.64-6.51,14.09-12.67,14.09-6.59,0-12.58-3.86-12.58-14.3C111.42,6.56,118.07,3.36,124,3.36Z" transform="translate(-0.6)"/><path id="path3215" class="cls-22" d="M124,1.65c-9.72,0-17.16,5.52-17.16,15.79,0,8.46,4.94,15.9,17.24,15.9,10.41,0,17.2-5.72,17.2-15.75,0-9.46-6.34-15.94-17.28-15.94h0Zm0.06,1c6.43,0,14.94,2.88,14.94,15,0,11.25-7.79,14.9-14.91,14.9-9.39,0-15.08-5.39-15.08-15C109,7.73,115.12,2.68,124,2.68Z" transform="translate(-0.6)"/><path id="path3217" class="cls-23" d="M142,32.88a2.13,2.13,0,0,1,2.17-2.29,2.19,2.19,0,0,1,2.42,2.15A2,2,0,0,1,144.52,35c-1.38,0-2.5-.72-2.5-2.12h0Z" transform="translate(-0.6)"/><path id="path3221" class="cls-24" d="M144.33,27.25c1.12-7.93,1.81-16.27,2.46-24.59A2.09,2.09,0,0,1,149,.36a4.32,4.32,0,0,1,.48,0l-0.3,2L145.24,27Z" transform="translate(-0.6)"/><path id="path3151" class="cls-13" d="M12.2,34.89l2.21-1.62,2.21,1.62a14.82,14.82,0,0,0-2.21-.22A17,17,0,0,0,12.2,34.89Z" transform="translate(-0.6)"/><path id="path3169" class="cls-13" d="M21.59,31.31L24.67,30a4.69,4.69,0,0,0,1.47,1.33,9.38,9.38,0,0,0-4.56,0h0Z" transform="translate(-0.6)"/><path id="path3187" class="cls-13" d="M50.13,31.3a9.7,9.7,0,0,1,4.6,0L52.43,30Z" transform="translate(-0.6)"/><path id="path3203" class="cls-13" d="M54.37,18.46l-1.94-1c6.44,0.07,12.88.08,19.32,0l-1.94,1q-7.72-.1-15.44,0h0Z" transform="translate(-0.6)"/><path id="path3197" class="cls-25" d="M71.75,30v0.64l2.3,0.64c-0.37-9.19-.4-18.4,0-27.62L71.75,5V30Z" transform="translate(-0.6)"/><path id="path3195" class="cls-13" d="M74.06,31.3a9.7,9.7,0,0,0-4.6,0L71.75,30Z" transform="translate(-0.6)"/><path id="path3219" class="cls-13" d="M145.35,26.32l-1,.93a3,3,0,0,1,1.73.27Z" transform="translate(-0.6)"/><path id="path3507" class="cls-26" d="M151.35,2.37a2.26,2.26,0,0,1-4.49,0A2.26,2.26,0,0,1,151.35,2.37Z" transform="translate(-0.6)"/></svg>