<?xml version="1.0" encoding="UTF-8" standalone="no"?>
<svg width="171px" height="76px" viewBox="0 0 171 76" version="1.1" xmlns="http://www.w3.org/2000/svg" xmlns:xlink="http://www.w3.org/1999/xlink">
    <!-- Generator: Sketch 3.6.1 (26313) - http://www.bohemiancoding.com/sketch -->
    <title>Group 2</title>
    <desc>Created with Sketch.</desc>
    <defs></defs>
    <g id="Page-1" stroke="none" stroke-width="1" fill="none" fill-rule="evenodd">
        <g id="Group-2">
            <g id="Group-3" transform="translate(63.000000, 0.000000)" fill="#0B667C">
                <path d="M8.079,20.185 C8.079,18.377 9.545,16.911 11.352,16.911 C13.16,16.911 14.626,18.377 14.626,20.185 C14.626,21.994 13.16,23.46 11.352,23.46 C9.544,23.46 8.079,21.994 8.079,20.185 L8.079,20.185 L8.079,20.185 Z" id="Shape"></path>
                <path d="M8.079,27.771 C8.079,25.962 9.545,24.496 11.352,24.496 C13.16,24.496 14.626,25.962 14.626,27.771 C14.626,29.58 13.16,31.046 11.352,31.046 C9.544,31.046 8.079,29.58 8.079,27.771 L8.079,27.771 L8.079,27.771 Z" id="Shape"></path>
                <path d="M0.086,20.054 C0.086,18.245 1.552,16.781 3.359,16.781 C5.166,16.781 6.632,18.245 6.632,20.054 C6.632,21.863 5.166,23.329 3.359,23.329 C1.552,23.329 0.086,21.863 0.086,20.054 L0.086,20.054 L0.086,20.054 Z" id="Shape"></path>
                <path d="M1.115,27.323 C1.115,25.762 2.38,24.495 3.939,24.495 C5.5,24.495 6.764,25.762 6.764,27.323 C6.764,28.884 5.499,30.148 3.939,30.148 C2.38,30.148 1.115,28.884 1.115,27.323 L1.115,27.323 L1.115,27.323 Z" id="Shape"></path>
                <path d="M5.069,32.621 C5.069,31.66 5.848,30.882 6.806,30.882 C7.765,30.882 8.544,31.66 8.544,32.621 C8.544,33.579 7.765,34.358 6.806,34.358 C5.848,34.358 5.069,33.58 5.069,32.621 L5.069,32.621 L5.069,32.621 Z" id="Shape"></path>
                <path d="M10.199,34.682 C10.199,33.237 11.369,32.064 12.815,32.064 C14.258,32.064 15.429,33.236 15.429,34.682 C15.429,36.128 14.258,37.299 12.815,37.299 C11.369,37.299 10.199,36.127 10.199,34.682 L10.199,34.682 L10.199,34.682 Z" id="Shape"></path>
                <path d="M15.834,37.444 C15.834,35.999 17.004,34.828 18.45,34.828 C19.894,34.828 21.066,35.999 21.066,37.444 C21.066,38.889 19.894,40.062 18.45,40.062 C17.004,40.062 15.834,38.89 15.834,37.444 L15.834,37.444 L15.834,37.444 Z" id="Shape"></path>
                <path d="M4.677,6.685 C4.677,5.838 5.365,5.152 6.211,5.152 C7.058,5.152 7.744,5.838 7.744,6.685 C7.744,7.534 7.058,8.219 6.211,8.219 C5.365,8.219 4.677,7.534 4.677,6.685 L4.677,6.685 L4.677,6.685 Z" id="Shape"></path>
                <path d="M1.682,12.857 C1.682,11.414 2.851,10.244 4.294,10.244 C5.737,10.244 6.906,11.414 6.906,12.857 C6.906,14.301 5.737,15.471 4.294,15.471 C2.851,15.472 1.682,14.301 1.682,12.857 L1.682,12.857 L1.682,12.857 Z" id="Shape"></path>
                <path d="M8.434,12.41 C8.434,10.738 9.79,9.382 11.461,9.382 C13.133,9.382 14.489,10.738 14.489,12.41 C14.489,14.083 13.134,15.44 11.461,15.44 C9.79,15.44 8.434,14.083 8.434,12.41 L8.434,12.41 L8.434,12.41 Z" id="Shape"></path>
                <path d="M12.032,1.207 C12.032,0.541 12.573,0 13.24,0 C13.907,0 14.448,0.541 14.448,1.207 C14.448,1.875 13.907,2.416 13.24,2.416 C12.573,2.416 12.032,1.875 12.032,1.207 L12.032,1.207 L12.032,1.207 Z" id="Shape"></path>
                <path d="M9.27,5.739 C9.27,4.344 10.4,3.216 11.793,3.216 C13.186,3.216 14.315,4.344 14.315,5.739 C14.315,7.133 13.185,8.263 11.793,8.263 C10.4,8.263 9.27,7.133 9.27,5.739 L9.27,5.739 L9.27,5.739 Z" id="Shape"></path>
                <path d="M29.453,20.185 C29.453,18.377 30.919,16.911 32.726,16.911 C34.533,16.911 36,18.377 36,20.185 C36,21.994 34.534,23.46 32.727,23.46 C30.92,23.46 29.453,21.994 29.453,20.185 L29.453,20.185 L29.453,20.185 Z" id="Shape"></path>
                <path d="M29.453,27.771 C29.453,25.962 30.919,24.496 32.726,24.496 C34.533,24.496 36,25.962 36,27.771 C36,29.58 34.534,31.046 32.727,31.046 C30.92,31.046 29.453,29.58 29.453,27.771 L29.453,27.771 L29.453,27.771 Z" id="Shape"></path>
                <path d="M37.445,20.054 C37.445,18.245 38.911,16.781 40.718,16.781 C42.525,16.781 43.991,18.245 43.991,20.054 C43.991,21.863 42.525,23.329 40.718,23.329 C38.911,23.329 37.445,21.863 37.445,20.054 L37.445,20.054 L37.445,20.054 Z" id="Shape"></path>
                <path d="M37.313,27.323 C37.313,25.762 38.579,24.495 40.139,24.495 C41.698,24.495 42.963,25.762 42.963,27.323 C42.963,28.884 41.697,30.148 40.139,30.148 C38.579,30.148 37.313,28.884 37.313,27.323 L37.313,27.323 L37.313,27.323 Z" id="Shape"></path>
                <path d="M35.536,32.621 C35.536,31.66 36.313,30.882 37.271,30.882 C38.23,30.882 39.008,31.66 39.008,32.621 C39.008,33.579 38.23,34.358 37.271,34.358 C36.313,34.358 35.536,33.58 35.536,32.621 L35.536,32.621 L35.536,32.621 Z" id="Shape"></path>
                <path d="M28.649,34.682 C28.649,33.237 29.82,32.064 31.265,32.064 C32.708,32.064 33.879,33.236 33.879,34.682 C33.879,36.128 32.708,37.299 31.265,37.299 C29.82,37.299 28.649,36.127 28.649,34.682 L28.649,34.682 L28.649,34.682 Z" id="Shape"></path>
                <path d="M23.013,37.444 C23.013,35.999 24.185,34.828 25.629,34.828 C27.074,34.828 28.244,35.999 28.244,37.444 C28.244,38.889 27.074,40.062 25.629,40.062 C24.185,40.062 23.013,38.89 23.013,37.444 L23.013,37.444 L23.013,37.444 Z" id="Shape"></path>
                <path d="M36.334,6.685 C36.334,5.838 37.02,5.152 37.867,5.152 C38.714,5.152 39.401,5.838 39.401,6.685 C39.401,7.534 38.713,8.219 37.867,8.219 C37.02,8.219 36.334,7.534 36.334,6.685 L36.334,6.685 L36.334,6.685 Z" id="Shape"></path>
                <path d="M37.172,12.857 C37.172,11.414 38.341,10.244 39.784,10.244 C41.227,10.244 42.396,11.414 42.396,12.857 C42.396,14.301 41.227,15.471 39.784,15.471 C38.341,15.471 37.172,14.301 37.172,12.857 L37.172,12.857 L37.172,12.857 Z" id="Shape"></path>
                <path d="M29.591,12.41 C29.591,10.738 30.945,9.382 32.618,9.382 C34.291,9.382 35.644,10.738 35.644,12.41 C35.644,14.083 34.29,15.44 32.618,15.44 C30.946,15.44 29.591,14.083 29.591,12.41 L29.591,12.41 L29.591,12.41 Z" id="Shape"></path>
                <path d="M29.633,1.207 C29.633,0.541 30.172,0 30.839,0 C31.506,0 32.046,0.541 32.046,1.207 C32.046,1.875 31.506,2.416 30.839,2.416 C30.172,2.416 29.633,1.875 29.633,1.207 L29.633,1.207 L29.633,1.207 Z" id="Shape"></path>
                <path d="M29.763,5.739 C29.763,4.344 30.893,3.216 32.285,3.216 C33.679,3.216 34.808,4.344 34.808,5.739 C34.808,7.133 33.678,8.263 32.285,8.263 C30.893,8.263 29.763,7.133 29.763,5.739 L29.763,5.739 L29.763,5.739 Z" id="Shape"></path>
            </g>
            <path d="M99.113,60.146 C99.113,59.875 98.77,59.843 98.529,59.843 L97.26,59.843 C96.713,59.843 96.678,59.995 96.541,60.419 L92.94,71.704 L89.03,60.327 C88.926,60.056 88.962,59.843 88.584,59.843 C87.762,59.843 87.865,59.784 87.658,60.419 L83.954,71.583 L80.182,60.419 C80.011,59.933 79.91,59.843 79.36,59.843 L77.474,59.843 C77.199,59.843 76.96,59.933 76.96,60.206 C76.96,60.356 77.028,60.569 77.096,60.722 L82.31,75.062 C82.447,75.427 82.55,75.517 82.996,75.517 L83.954,75.517 C84.435,75.517 84.504,75.486 84.64,75.062 L88.036,65.322 L91.43,75.062 C91.569,75.486 91.67,75.517 92.152,75.517 L93.352,75.517 C93.695,75.517 93.763,75.335 93.867,75.062 L98.942,60.722 C99.011,60.54 99.113,60.356 99.113,60.146 L99.113,60.146 L99.113,60.146 Z" id="Shape" fill="#EE1F41"></path>
            <path d="M64.19,65.8 L71.958,64.667 C71.764,62.704 70.333,60.813 68.48,60.813 C65.848,60.813 64.516,63.134 64.19,65.8 L64.19,65.8 L64.19,65.8 Z M74.137,65.923 L64.191,67.304 C64.451,71.593 66.759,73.167 69.23,73.167 C71.179,73.167 72.644,72.124 73.716,70.47 C74.171,69.734 74.267,69.581 74.659,69.581 C74.854,69.581 75.308,69.673 75.308,70.315 C75.308,71.114 73.879,75.68 68.807,75.68 C66.856,75.68 64.223,74.944 62.761,72.123 C61.916,70.592 61.722,68.844 61.722,67.404 C61.722,65.197 62.177,63.603 62.827,62.468 C63.184,61.825 64.841,59.066 68.841,59.066 C73.976,59.066 75.082,63.683 75.082,64.941 C75.08,65.8 74.527,65.86 74.137,65.923 L74.137,65.923 L74.137,65.923 Z" id="Shape" fill="#EE1F41"></path>
            <path d="M106.08,65.741 C104.91,65.251 103.35,64.575 103.35,62.858 C103.35,61.969 104.034,60.622 105.788,60.622 C107.349,60.622 107.934,61.696 108.292,62.276 C108.584,62.797 108.877,63.319 109.722,63.319 C110.372,63.319 110.923,62.889 110.923,62.153 C110.923,61.174 109.559,59.059 105.854,59.059 C102.311,59.059 100.685,61.143 100.685,63.319 C100.685,66.139 102.928,67.151 105.593,68.346 C107.024,68.989 108.714,69.723 108.714,71.594 C108.714,72.729 107.934,73.924 106.21,73.924 C104.554,73.924 103.871,73.065 103.416,72.391 C103.22,72.055 103.09,71.838 102.993,71.686 C102.798,71.411 102.408,70.889 101.692,70.889 C101.042,70.889 100.359,71.35 100.359,72.207 C100.359,73.096 101.628,75.67 105.982,75.67 C106.795,75.67 108.55,75.609 109.915,74.475 C110.892,73.649 111.445,72.36 111.445,71.073 C111.445,68.194 109.169,67.151 107.478,66.352 L106.08,65.741 L106.08,65.741 L106.08,65.741 Z" id="Shape" fill="#EE1F41"></path>
            <path d="M135.584,60.146 C135.584,59.875 135.241,59.843 134.999,59.843 L133.73,59.843 C133.183,59.843 133.148,59.995 133.011,60.419 L129.41,71.704 L125.5,60.327 C125.397,60.056 125.432,59.843 125.054,59.843 C124.232,59.843 124.335,59.784 124.128,60.419 L120.425,71.583 L116.653,60.419 C116.481,59.933 116.38,59.843 115.831,59.843 L113.945,59.843 C113.67,59.843 113.43,59.933 113.43,60.206 C113.43,60.356 113.498,60.569 113.567,60.722 L118.78,75.062 C118.917,75.427 119.02,75.517 119.467,75.517 L120.426,75.517 C120.906,75.517 120.975,75.486 121.111,75.062 L124.507,65.322 L127.902,75.062 C128.04,75.486 128.141,75.517 128.623,75.517 L129.823,75.517 C130.166,75.517 130.234,75.335 130.338,75.062 L135.413,60.722 C135.48,60.54 135.584,60.356 135.584,60.146 L135.584,60.146 L135.584,60.146 Z" id="Shape" fill="#EE1F41"></path>
            <path d="M158.961,65.792 L166.73,64.657 C166.536,62.696 165.105,60.807 163.252,60.807 C160.618,60.808 159.285,63.126 158.961,65.792 L158.961,65.792 L158.961,65.792 Z M168.908,65.913 L158.961,67.294 C159.221,71.585 161.528,73.159 163.999,73.159 C165.949,73.159 167.412,72.116 168.484,70.462 C168.941,69.726 169.038,69.571 169.427,69.571 C169.623,69.571 170.077,69.663 170.077,70.307 C170.077,71.104 168.646,75.67 163.576,75.67 C161.625,75.67 158.992,74.936 157.529,72.115 C156.684,70.582 156.49,68.834 156.49,67.394 C156.49,65.189 156.945,63.593 157.594,62.46 C157.953,61.815 159.61,59.058 163.61,59.058 C168.745,59.058 169.85,63.675 169.85,64.933 C169.851,65.792 169.299,65.853 168.908,65.913 L168.908,65.913 L168.908,65.913 Z" id="Shape" fill="#EE1F41"></path>
            <path d="M141.854,60.222 C141.854,59.732 141.724,59.64 141.203,59.64 L139.514,59.64 C138.96,59.64 138.96,59.824 138.96,60.222 L138.96,74.964 C138.96,75.394 138.96,75.517 139.448,75.517 L141.203,75.517 C141.691,75.517 141.854,75.486 141.854,74.964 L141.854,60.222 L141.854,60.222 L141.854,60.222 Z" id="Shape" fill="#EE1F41"></path>
            <path d="M155.899,61.034 C155.899,59.47 153.695,59.255 152.351,59.255 C150.94,59.255 147.497,59.653 146.462,60.573 C145.945,61.034 145.945,61.557 145.945,62.169 L145.945,74.964 C145.945,75.485 146.152,75.517 146.668,75.517 L148.527,75.517 C148.941,75.517 149.044,75.271 149.044,74.964 L149.044,62.907 C149.044,61.647 149.424,60.727 151.042,60.727 C153.144,60.727 153.144,62.352 154.521,62.352 C155.315,62.353 155.899,61.71 155.899,61.034 L155.899,61.034 L155.899,61.034 Z" id="Shape" fill="#EE1F41"></path>
            <path d="M15.02,60.136 C15.02,55.657 10.87,54.175 6.344,54.175 C5.521,54.175 0.72,54.353 0.239,54.738 C0.035,54.915 0,55.065 0,55.331 L0,74.786 C0,75.231 0.138,75.319 0.652,75.319 L2.811,75.319 C3.292,75.319 3.396,75.2 3.396,74.786 L3.396,66.364 C4.047,66.423 4.664,66.423 5.315,66.423 C10.013,66.423 15.02,64.851 15.02,60.136 L15.02,60.136 L15.02,60.136 Z M11.522,60.224 C11.522,61.767 10.802,63.249 9.19,64.05 C8.127,64.585 6.275,64.763 5.04,64.763 C4.492,64.763 3.943,64.673 3.395,64.644 L3.395,56.042 C4.046,55.894 4.767,55.835 5.452,55.835 C8.883,55.835 11.522,56.874 11.522,60.224 L11.522,60.224 L11.522,60.224 Z" id="Shape" fill="#EE1F41"></path>
            <path d="M33.672,74.993 C33.672,74.815 33.501,74.638 33.397,74.489 L26.47,65.473 C27.224,65.266 27.91,65.088 28.63,64.791 C30.928,63.781 32.472,62.062 32.472,59.779 C32.472,56.131 29.625,54.558 25.715,54.232 C25.064,54.173 24.411,54.173 23.76,54.173 C22.971,54.173 18.513,54.261 18.033,54.825 C17.895,54.973 17.895,55.329 17.895,55.507 L17.895,74.933 C17.895,75.23 18.101,75.318 18.444,75.318 L20.605,75.318 C21.152,75.318 21.188,75.111 21.188,74.695 L21.188,66.748 C21.188,66.215 21.428,65.799 22.114,65.799 C22.903,65.799 23.521,66.332 23.932,66.897 L29.625,74.844 C29.865,75.199 29.968,75.319 30.447,75.319 L33.191,75.319 C33.431,75.319 33.672,75.231 33.672,74.993 L33.672,74.993 L33.672,74.993 Z M29.042,60.136 C29.042,63.308 26.161,64.495 22.835,64.495 L21.189,64.495 L21.189,55.954 C21.91,55.893 22.629,55.835 23.383,55.835 C26.744,55.835 29.042,56.874 29.042,60.136 L29.042,60.136 L29.042,60.136 Z" id="Shape" fill="#EE1F41"></path>
            <path d="M59.43,74.751 L59.43,54.763 C59.43,54.406 59.327,54.288 58.916,54.288 L57.337,54.288 C56.822,54.288 56.79,54.434 56.79,54.851 L56.79,70.183 L43.896,54.731 C43.656,54.434 43.656,54.288 43.142,54.288 L40.913,54.288 C40.467,54.288 40.432,54.495 40.432,54.851 L40.432,74.662 C40.432,75.047 40.502,75.226 40.981,75.226 L42.627,75.226 C43.073,75.226 43.107,75.017 43.107,74.662 L43.107,58.38 L56.79,74.81 C57.133,75.226 57.269,75.226 57.852,75.226 L58.881,75.226 C59.293,75.226 59.43,75.106 59.43,74.751 L59.43,74.751 L59.43,74.751 Z" id="Shape" fill="#EE1F41"></path>
        </g>
    </g>
</svg>