<?xml version="1.0" encoding="UTF-8" standalone="no"?>
<svg width="221px" height="40px" viewBox="0 0 221 40" version="1.1" xmlns="http://www.w3.org/2000/svg" xmlns:xlink="http://www.w3.org/1999/xlink">
    <!-- Generator: Sketch 3.6.1 (26313) - http://www.bohemiancoding.com/sketch -->
    <title>logo-ap</title>
    <desc>Created with Sketch.</desc>
    <defs>
        <path id="path-1" d="M0.888,32.9411765 L24.2838241,32.9411765 L24.2838241,0.321638003 L0.888,0.321638003 L0.888,32.9411765 L0.888,32.9411765 Z"></path>
    </defs>
    <g id="Page-1" stroke="none" stroke-width="1" fill="none" fill-rule="evenodd">
        <g id="logo-ap">
            <path d="M22.3009412,0.000470588235 L-0.000235294118,33.0687059 L9.31388235,33.0687059 L11.9844706,28.6298824 L20.708,28.6298824 L20.708,21.044 L16.8985882,21.044 L22.0456471,12.6722353 L22.0456471,33.3451765 L30.2185882,33.3451765 L30.2185882,0.000470588235 L22.3009412,0.000470588235 Z" id="Fill-1" fill="#221F20"></path>
            <g id="Group-9" transform="translate(30.588235, 6.336353)">
                <g id="Group-4">
                    <mask id="mask-2" fill="white">
                        <use xlink:href="#path-1"></use>
                    </mask>
                    <g id="Clip-3"></g>
                    <path d="M0.928,0.323764706 L0.888,32.9414118 L9.06329412,32.9414118 L9.06329412,7.39788235 L12.168,7.39788235 C12.168,7.39788235 15.9797647,7.32023529 15.9797647,11.2896471 C15.9797647,15.2567059 12.5609412,15.0637647 12.5609412,15.0637647 L10.3609412,15.0637647 L10.3609412,22.2931765 L15.508,22.2931765 C15.508,22.2931765 24.6644706,22.7625882 24.2715294,11.0531765 C23.8950588,-0.100941176 11.7350588,0.323764706 11.7350588,0.323764706 L0.928,0.323764706 Z" id="Fill-2" fill="#221F20" mask="url(#mask-2)"></path>
                </g>
                <path d="M169.638824,18.944 L172.551765,18.4992941 C172.676471,19.064 172.925882,19.4945882 173.307059,19.7875294 C173.684706,20.0792941 174.212941,20.2275294 174.897647,20.2275294 C175.649412,20.2275294 176.212941,20.0898824 176.590588,19.8122353 C176.848235,19.6204706 176.975294,19.3592941 176.975294,19.0392941 C176.975294,18.8169412 176.904706,18.6334118 176.767059,18.4887059 C176.622353,18.3510588 176.297647,18.224 175.796471,18.1087059 C173.455294,17.5934118 171.970588,17.1204706 171.342353,16.6934118 C170.475294,16.1016471 170.041176,15.2757647 170.041176,14.2216471 C170.041176,13.2734118 170.415294,12.4722353 171.165882,11.8263529 C171.916471,11.1781176 173.081176,10.8534118 174.657647,10.8534118 C176.16,10.8534118 177.277647,11.1004706 178.008235,11.5863529 C178.737647,12.0769412 179.238824,12.7992941 179.514118,13.7592941 L176.777647,14.264 C176.661176,13.8369412 176.438824,13.5087059 176.110588,13.284 C175.783529,13.0545882 175.317647,12.9416471 174.710588,12.9416471 C173.945882,12.9416471 173.398824,13.0475294 173.067059,13.2628235 C172.848235,13.4134118 172.738824,13.6110588 172.738824,13.8510588 C172.738824,14.0592941 172.834118,14.2322353 173.028235,14.3769412 C173.289412,14.5698824 174.191765,14.8428235 175.74,15.1945882 C177.284706,15.544 178.364706,15.9745882 178.977647,16.4863529 C179.584706,17.004 179.888235,17.724 179.888235,18.644 C179.888235,19.6498824 179.468235,20.5169412 178.625882,21.2404706 C177.785882,21.9628235 176.544706,22.3228235 174.897647,22.3228235 C173.402353,22.3228235 172.221176,22.0192941 171.345882,21.4122353 C170.475294,20.8098824 169.907059,19.984 169.638824,18.944 L169.638824,18.944 Z M166.465882,15.6498824 C166.444706,14.8075294 166.229412,14.1687059 165.817647,13.7310588 C165.404706,13.2945882 164.9,13.0757647 164.308235,13.0757647 C163.672941,13.0757647 163.150588,13.3087059 162.737647,13.7698824 C162.325882,14.2287059 162.121176,14.8569412 162.128235,15.6498824 L166.465882,15.6498824 Z M166.3,18.584 L169.195294,19.0675294 C168.822353,20.1298824 168.236471,20.9369412 167.431765,21.4910588 C166.631765,22.0475294 165.627059,22.3228235 164.42,22.3228235 C162.512941,22.3228235 161.101176,21.7028235 160.184706,20.4534118 C159.462353,19.4557647 159.098824,18.1922353 159.098824,16.6722353 C159.098824,14.8534118 159.574118,13.4275294 160.527059,12.3981176 C161.475294,11.3687059 162.677647,10.8534118 164.130588,10.8534118 C165.763529,10.8534118 167.051765,11.3934118 167.996471,12.4722353 C168.938824,13.5510588 169.389412,15.2016471 169.350588,17.4275294 L162.075294,17.4275294 C162.096471,18.2887059 162.328235,18.9581176 162.777647,19.4345882 C163.224706,19.9145882 163.785882,20.1534118 164.451765,20.1534118 C164.907059,20.1534118 165.288235,20.0298824 165.598824,19.7828235 C165.909412,19.5334118 166.144706,19.1345882 166.3,18.584 L166.3,18.584 Z M155.548235,22.0757647 L152.645882,22.0757647 L152.645882,11.104 L155.34,11.104 L155.34,12.6628235 C155.802353,11.9263529 156.218824,11.4381176 156.585882,11.2063529 C156.955294,10.9734118 157.371765,10.8534118 157.841176,10.8534118 C158.504706,10.8534118 159.138824,11.0369412 159.752941,11.404 L158.852941,13.9322353 C158.367059,13.6181176 157.911765,13.4592941 157.491765,13.4592941 C157.082353,13.4592941 156.74,13.5698824 156.458824,13.7945882 C156.172941,14.0169412 155.954118,14.4228235 155.791765,15.0087059 C155.629412,15.5934118 155.548235,16.8204706 155.548235,18.6863529 L155.548235,22.0757647 Z M142.790588,9.49223529 L142.790588,13.7875294 L144.461176,13.7875294 C145.668235,13.7875294 146.475294,13.7098824 146.881176,13.5510588 C147.287059,13.3922353 147.603529,13.1463529 147.837647,12.8075294 C148.065882,12.4687059 148.182353,12.0769412 148.182353,11.6298824 C148.182353,11.0792941 148.02,10.624 147.695294,10.2651765 C147.375294,9.90752941 146.962353,9.68282353 146.468235,9.59458824 C146.102353,9.524 145.367059,9.49223529 144.267059,9.49223529 L142.790588,9.49223529 Z M139.731765,22.0757647 L139.731765,6.92752941 L144.638824,6.92752941 C146.496471,6.92752941 147.709412,7.00517647 148.274118,7.15694118 C149.142353,7.38282353 149.872941,7.87694118 150.457647,8.63811765 C151.042353,9.40047059 151.335294,10.384 151.335294,11.5863529 C151.335294,12.5181176 151.165882,13.3004706 150.827059,13.9322353 C150.489412,14.5675294 150.062353,15.064 149.54,15.4275294 C149.021176,15.7875294 148.492941,16.0275294 147.956471,16.144 C147.227059,16.2887059 146.168235,16.3628235 144.782353,16.3628235 L142.790588,16.3628235 L142.790588,22.0757647 L139.731765,22.0757647 Z M124.277647,16.3510588 C124.277647,17.5228235 124.44,18.3698824 124.763529,18.8945882 C125.229412,19.6498824 125.885882,20.0298824 126.724706,20.0298824 C127.395294,20.0298824 127.962353,19.744 128.431765,19.1769412 C128.897647,18.6098824 129.134118,17.7592941 129.134118,16.6310588 C129.134118,15.3710588 128.904706,14.4616471 128.452941,13.9075294 C127.997647,13.3545882 127.416471,13.0757647 126.703529,13.0757647 C126.016471,13.0757647 125.441176,13.3498824 124.976471,13.8969412 C124.510588,14.444 124.277647,15.2628235 124.277647,16.3510588 L124.277647,16.3510588 Z M132.025882,22.0757647 L129.331765,22.0757647 L129.331765,20.464 C128.883529,21.0922353 128.355294,21.5581176 127.744706,21.8651765 C127.134118,22.1710588 126.52,22.3228235 125.9,22.3228235 C124.636471,22.3228235 123.558824,21.8145882 122.658824,20.7992941 C121.763529,19.7828235 121.311765,18.3651765 121.311765,16.5487059 C121.311765,14.6875294 121.748235,13.2734118 122.623529,12.3063529 C123.497647,11.3404706 124.605882,10.8534118 125.942353,10.8534118 C127.165882,10.8534118 128.228235,11.3651765 129.123529,12.384 L129.123529,6.92752941 L132.025882,6.92752941 L132.025882,22.0757647 Z M117.768235,15.6498824 C117.747059,14.8075294 117.531765,14.1687059 117.12,13.7310588 C116.705882,13.2945882 116.202353,13.0757647 115.609412,13.0757647 C114.975294,13.0757647 114.452941,13.3087059 114.04,13.7698824 C113.628235,14.2287059 113.423529,14.8569412 113.430588,15.6498824 L117.768235,15.6498824 Z M117.602353,18.584 L120.497647,19.0675294 C120.124706,20.1298824 119.538824,20.9369412 118.734118,21.4910588 C117.934118,22.0475294 116.929412,22.3228235 115.722353,22.3228235 C113.814118,22.3228235 112.403529,21.7028235 111.487059,20.4534118 C110.763529,19.4557647 110.401176,18.1922353 110.401176,16.6722353 C110.401176,14.8534118 110.876471,13.4275294 111.829412,12.3981176 C112.777647,11.3687059 113.98,10.8534118 115.432941,10.8534118 C117.065882,10.8534118 118.354118,11.3934118 119.298824,12.4722353 C120.241176,13.5510588 120.691765,15.2016471 120.652941,17.4275294 L113.377647,17.4275294 C113.398824,18.2887059 113.630588,18.9581176 114.08,19.4345882 C114.527059,19.9145882 115.088235,20.1534118 115.754118,20.1534118 C116.209412,20.1534118 116.589412,20.0298824 116.9,19.7828235 C117.211765,19.5334118 117.447059,19.1345882 117.602353,18.584 L117.602353,18.584 Z M110.289412,11.104 L110.289412,13.4169412 L108.307059,13.4169412 L108.307059,17.8392941 C108.307059,18.7357647 108.324706,19.2581176 108.363529,19.4063529 C108.402353,19.5534118 108.487059,19.6745882 108.621176,19.7734118 C108.755294,19.8687059 108.92,19.9169412 109.111765,19.9169412 C109.383529,19.9169412 109.770588,19.8228235 110.281176,19.6392941 L110.529412,21.8887059 C109.851765,22.1781176 109.089412,22.3228235 108.232941,22.3228235 C107.710588,22.3228235 107.238824,22.2345882 106.818824,22.0616471 C106.398824,21.8851765 106.092941,21.6557647 105.894118,21.3781176 C105.696471,21.0992941 105.562353,20.7216471 105.485882,20.2451765 C105.425882,19.9098824 105.394118,19.2263529 105.394118,18.2004706 L105.394118,13.4169412 L104.061176,13.4169412 L104.061176,11.104 L105.394118,11.104 L105.394118,8.92047059 L108.307059,7.22870588 L108.307059,11.104 L110.289412,11.104 Z M100.598824,16.8063529 C100.228235,16.9310588 99.64,17.0781176 98.8317647,17.2510588 C98.0270588,17.424 97.5023529,17.5934118 97.2517647,17.7557647 C96.8741176,18.0275294 96.6835294,18.3651765 96.6835294,18.7781176 C96.6835294,19.1875294 96.8352941,19.5369412 97.1388235,19.8334118 C97.4423529,20.1298824 97.8270588,20.2781176 98.2952941,20.2781176 C98.8211765,20.2781176 99.3176471,20.104 99.7952941,19.7628235 C100.147059,19.5016471 100.376471,19.1804706 100.485882,18.7992941 C100.563529,18.5522353 100.598824,18.0804706 100.598824,17.3851765 L100.598824,16.8063529 Z M96.7152941,14.4510588 L94.0811765,13.9745882 C94.3776471,12.9134118 94.8847059,12.1298824 95.6082353,11.6192941 C96.3341176,11.1110588 97.4070588,10.8534118 98.8317647,10.8534118 C100.129412,10.8534118 101.092941,11.0087059 101.727059,11.3145882 C102.358824,11.6228235 102.807059,12.0098824 103.063529,12.4828235 C103.322353,12.9557647 103.451765,13.8204706 103.451765,15.0816471 L103.42,18.4722353 C103.42,19.4345882 103.465882,20.1463529 103.561176,20.6051765 C103.652941,21.0604706 103.829412,21.5534118 104.083529,22.0757647 L101.208235,22.0757647 C101.134118,21.8816471 101.04,21.5957647 100.930588,21.2192941 C100.883529,21.0463529 100.849412,20.9334118 100.827059,20.8769412 C100.330588,21.3592941 99.8023529,21.7192941 99.2376471,21.9628235 C98.6729412,22.2028235 98.0705882,22.3228235 97.4282353,22.3228235 C96.3,22.3228235 95.4070588,22.0157647 94.7576471,21.4063529 C94.1058824,20.7922353 93.7811765,20.0169412 93.7811765,19.0781176 C93.7811765,18.4616471 93.9294118,17.9063529 94.2258824,17.4204706 C94.5211765,16.9334118 94.9388235,16.564 95.4705882,16.3063529 C96.0035294,16.0487059 96.7752941,15.8228235 97.7811765,15.6287059 C99.1352941,15.3757647 100.076471,15.1357647 100.598824,14.9169412 L100.598824,14.6275294 C100.598824,14.0663529 100.461176,13.6710588 100.185882,13.4322353 C99.9105882,13.1957647 99.3929412,13.0757647 98.6270588,13.0757647 C98.1082353,13.0757647 97.7070588,13.1781176 97.4176471,13.3816471 C97.1282353,13.5828235 96.8952941,13.9392941 96.7152941,14.4510588 L96.7152941,14.4510588 Z M89.7235294,22.0757647 L92.6258824,22.0757647 L92.6258824,11.104 L89.7235294,11.104 L89.7235294,22.0757647 Z M89.7235294,9.61458824 L92.6258824,9.61458824 L92.6258824,6.92752941 L89.7235294,6.92752941 L89.7235294,9.61458824 Z M88.5788235,14.3487059 L85.7141176,14.864 C85.62,14.2922353 85.4011765,13.8616471 85.0588235,13.5722353 C84.7164706,13.284 84.2752941,13.1392941 83.7329412,13.1392941 C83.0058824,13.1392941 82.4317647,13.3898824 82,13.8863529 C81.5705882,14.3875294 81.3552941,15.2228235 81.3552941,16.3945882 C81.3552941,17.6957647 81.5741176,18.6157647 82.0117647,19.1522353 C82.4482353,19.6875294 83.0341176,19.9569412 83.7705882,19.9569412 C84.3258824,19.9569412 84.7729412,19.8004706 85.1258824,19.4875294 C85.4776471,19.1734118 85.7247059,18.6334118 85.8694118,17.8722353 L88.7235294,18.3545882 C88.4270588,19.664 87.8552941,20.6545882 87.0152941,21.3216471 C86.1764706,21.9910588 85.0517647,22.3228235 83.6364706,22.3228235 C82.0329412,22.3228235 80.7517647,21.8181176 79.8,20.8063529 C78.8447059,19.7945882 78.3682353,18.3898824 78.3682353,16.5992941 C78.3682353,14.7898824 78.8470588,13.3792941 79.8035294,12.3698824 C80.7635294,11.3581176 82.0564706,10.8534118 83.6905882,10.8534118 C85.0270588,10.8534118 86.0882353,11.1428235 86.8788235,11.7181176 C87.6647059,12.2922353 88.2329412,13.1710588 88.5788235,14.3487059 L88.5788235,14.3487059 Z M69.4423529,16.5887059 C69.4423529,17.6781176 69.7,18.5098824 70.2188235,19.0887059 C70.7341176,19.6675294 71.3717647,19.9569412 72.1305882,19.9569412 C72.8882353,19.9569412 73.5235294,19.6675294 74.0341176,19.0887059 C74.5494118,18.5098824 74.8070588,17.6710588 74.8070588,16.5675294 C74.8070588,15.4945882 74.5494118,14.6663529 74.0341176,14.0875294 C73.5235294,13.5087059 72.8882353,13.2204706 72.1305882,13.2204706 C71.3717647,13.2204706 70.7341176,13.5087059 70.2188235,14.0875294 C69.7,14.6663529 69.4423529,15.5016471 69.4423529,16.5887059 L69.4423529,16.5887059 Z M66.4658824,16.4322353 C66.4658824,15.4698824 66.7058824,14.5357647 67.1788235,13.6322353 C67.6552941,12.7334118 68.3282353,12.0416471 69.2,11.5698824 C70.0705882,11.0934118 71.0447059,10.8534118 72.12,10.8534118 C73.7776471,10.8534118 75.1388235,11.3934118 76.2011765,12.4722353 C77.2623529,13.5510588 77.7905882,14.9122353 77.7905882,16.5604706 C77.7905882,18.2181176 77.2552941,19.5934118 76.1870588,20.6863529 C75.1141176,21.7792941 73.7670588,22.3228235 72.1411765,22.3228235 C71.1317647,22.3228235 70.1764706,22.0969412 69.2635294,21.6416471 C68.3494118,21.1875294 67.6552941,20.5204706 67.1788235,19.6416471 C66.7058824,18.764 66.4658824,17.6957647 66.4658824,16.4322353 L66.4658824,16.4322353 Z M55.4035294,18.944 L58.3164706,18.4992941 C58.4411765,19.064 58.6905882,19.4945882 59.0717647,19.7875294 C59.4494118,20.0792941 59.9776471,20.2275294 60.6623529,20.2275294 C61.4141176,20.2275294 61.9776471,20.0898824 62.3552941,19.8122353 C62.6129412,19.6204706 62.74,19.3592941 62.74,19.0392941 C62.74,18.8169412 62.6694118,18.6334118 62.5317647,18.4887059 C62.3870588,18.3510588 62.0623529,18.224 61.5611765,18.1087059 C59.22,17.5934118 57.7352941,17.1204706 57.1070588,16.6934118 C56.24,16.1016471 55.8058824,15.2757647 55.8058824,14.2216471 C55.8058824,13.2734118 56.18,12.4722353 56.9317647,11.8263529 C57.6823529,11.1781176 58.8458824,10.8534118 60.4223529,10.8534118 C61.9247059,10.8534118 63.0435294,11.1004706 63.7729412,11.5863529 C64.5023529,12.0769412 65.0035294,12.7992941 65.2788235,13.7592941 L62.5423529,14.264 C62.4258824,13.8369412 62.2035294,13.5087059 61.8764706,13.284 C61.5482353,13.0545882 61.0823529,12.9416471 60.4752941,12.9416471 C59.7105882,12.9416471 59.1635294,13.0475294 58.8317647,13.2628235 C58.6129412,13.4134118 58.5035294,13.6110588 58.5035294,13.8510588 C58.5035294,14.0592941 58.6,14.2322353 58.7929412,14.3769412 C59.0541176,14.5698824 59.9564706,14.8428235 61.5047059,15.1945882 C63.0494118,15.544 64.1294118,15.9745882 64.7435294,16.4863529 C65.3494118,17.004 65.6529412,17.724 65.6529412,18.644 C65.6529412,19.6498824 65.2329412,20.5169412 64.3905882,21.2404706 C63.5505882,21.9628235 62.3094118,22.3228235 60.6623529,22.3228235 C59.1670588,22.3228235 57.9858824,22.0192941 57.1105882,21.4122353 C56.24,20.8098824 55.6729412,19.984 55.4035294,18.944 L55.4035294,18.944 Z M44.6905882,18.944 L47.6035294,18.4992941 C47.7282353,19.064 47.9776471,19.4945882 48.3588235,19.7875294 C48.7364706,20.0792941 49.2647059,20.2275294 49.9494118,20.2275294 C50.7011765,20.2275294 51.2647059,20.0898824 51.6423529,19.8122353 C51.9,19.6204706 52.0270588,19.3592941 52.0270588,19.0392941 C52.0270588,18.8169412 51.9564706,18.6334118 51.8188235,18.4887059 C51.6741176,18.3510588 51.3494118,18.224 50.8482353,18.1087059 C48.5070588,17.5934118 47.0223529,17.1204706 46.3941176,16.6934118 C45.5270588,16.1016471 45.0929412,15.2757647 45.0929412,14.2216471 C45.0929412,13.2734118 45.4670588,12.4722353 46.2176471,11.8263529 C46.9682353,11.1781176 48.1329412,10.8534118 49.7094118,10.8534118 C51.2117647,10.8534118 52.3294118,11.1004706 53.06,11.5863529 C53.7894118,12.0769412 54.2905882,12.7992941 54.5658824,13.7592941 L51.8294118,14.264 C51.7117647,13.8369412 51.4905882,13.5087059 51.1623529,13.284 C50.8341176,13.0545882 50.3694118,12.9416471 49.7623529,12.9416471 C48.9976471,12.9416471 48.4505882,13.0475294 48.1188235,13.2628235 C47.9,13.4134118 47.7905882,13.6110588 47.7905882,13.8510588 C47.7905882,14.0592941 47.8858824,14.2322353 48.08,14.3769412 C48.3411765,14.5698824 49.2435294,14.8428235 50.7917647,15.1945882 C52.3364706,15.544 53.4164706,15.9745882 54.0294118,16.4863529 C54.6364706,17.004 54.94,17.724 54.94,18.644 C54.94,19.6498824 54.52,20.5169412 53.6764706,21.2404706 C52.8376471,21.9628235 51.5964706,22.3228235 49.9494118,22.3228235 C48.4541176,22.3228235 47.2729412,22.0192941 46.3976471,21.4122353 C45.5270588,20.8098824 44.9588235,19.984 44.6905882,18.944 L44.6905882,18.944 Z M39.5364706,16.084 L37.4482353,10.4628235 L35.4023529,16.084 L39.5364706,16.084 Z M45.1682353,22.0757647 L41.8388235,22.0757647 L40.5164706,18.6334118 L34.4611765,18.6334118 L33.2117647,22.0757647 L29.9670588,22.0757647 L35.8682353,6.92752941 L39.1023529,6.92752941 L45.1682353,22.0757647 Z" id="Fill-5" fill="#221F20"></path>
                <path d="M179.264588,18.944 L182.177529,18.4992941 C182.301059,19.064 182.551647,19.4945882 182.932824,19.7875294 C183.310471,20.0792941 183.838706,20.2275294 184.523412,20.2275294 C185.275176,20.2275294 185.838706,20.0898824 186.216353,19.8122353 C186.474,19.6204706 186.601059,19.3592941 186.601059,19.0392941 C186.601059,18.8169412 186.530471,18.6334118 186.391647,18.4887059 C186.248118,18.3510588 185.923412,18.224 185.422235,18.1087059 C183.081059,17.5934118 181.596353,17.1204706 180.968118,16.6934118 C180.101059,16.1016471 179.666941,15.2757647 179.666941,14.2216471 C179.666941,13.2734118 180.041059,12.4722353 180.791647,11.8263529 C181.542235,11.1781176 182.706941,10.8534118 184.283412,10.8534118 C185.785765,10.8534118 186.903412,11.1004706 187.634,11.5863529 C188.363412,12.0769412 188.864588,12.7992941 189.139882,13.7592941 L186.403412,14.264 C186.285765,13.8369412 186.064588,13.5087059 185.736353,13.284 C185.408118,13.0545882 184.943412,12.9416471 184.336353,12.9416471 C183.571647,12.9416471 183.024588,13.0475294 182.692824,13.2628235 C182.474,13.4134118 182.364588,13.6110588 182.364588,13.8510588 C182.364588,14.0592941 182.459882,14.2322353 182.654,14.3769412 C182.915176,14.5698824 183.817529,14.8428235 185.365765,15.1945882 C186.910471,15.544 187.990471,15.9745882 188.603412,16.4863529 C189.210471,17.004 189.514,17.724 189.514,18.644 C189.514,19.6498824 189.094,20.5169412 188.250471,21.2404706 C187.411647,21.9628235 186.170471,22.3228235 184.523412,22.3228235 C183.028118,22.3228235 181.846941,22.0192941 180.971647,21.4122353 C180.101059,20.8098824 179.532824,19.984 179.264588,18.944" id="Fill-7" fill="#221F20"></path>
            </g>
        </g>
    </g>
</svg>