<?xml version="1.0" encoding="UTF-8" standalone="no"?>
<svg width="271px" height="111px" viewBox="0 0 271 111" version="1.1" xmlns="http://www.w3.org/2000/svg" xmlns:xlink="http://www.w3.org/1999/xlink">
    <!-- Generator: Sketch 3.6.1 (26313) - http://www.bohemiancoding.com/sketch -->
    <title>bizjournals-logo</title>
    <desc>Created with Sketch.</desc>
    <defs></defs>
    <g id="Page-1" stroke="none" stroke-width="1" fill="none" fill-rule="evenodd">
        <g id="bizjournals-logo">
            <g id="Layer_1">
                <rect id="Rectangle-path" fill="#243C7C" x="0" y="0" width="271" height="110.4"></rect>
                <g id="Group" transform="translate(17.000000, 17.000000)" fill="#FFFFFF">
                    <path d="M5.7,6.2 L0.4,6.2 L0.4,0.6 L18,0.6 L18,6.2 L12.8,6.2 L12.8,33.5 L5.8,33.5 L5.8,6.2 L5.7,6.2 Z" id="Shape"></path>
                    <path d="M21.8,0.7 L28.9,0.7 L28.9,13.9 L33.9,13.9 L33.9,0.7 L41,0.7 L41,33.6 L33.9,33.6 L33.9,19.6 L28.9,19.6 L28.9,33.6 L21.8,33.6 L21.8,0.7 L21.8,0.7 Z" id="Shape"></path>
                    <path d="M45.7,0.7 L60.6,0.7 L60.6,6.3 L52.8,6.3 L52.8,13.7 L59,13.7 L59,19 L52.8,19 L52.8,28 L61.1,28 L61.1,33.6 L45.7,33.6 L45.7,0.7 L45.7,0.7 Z" id="Shape"></path>
                    <path d="M71.9,0.7 L81,0.7 C87,0.7 89.9,3 89.9,8.1 L89.9,10.4 C89.9,13.9 88,15.6 85,16.3 C88.5,17 90.7,19 90.7,23.2 L90.7,25.3 C90.7,31.4 87.4,33.6 81.3,33.6 L72.1,33.6 L72.1,0.7 L71.9,0.7 Z M80.3,14 C82.3,14 83.1,13.2 83.1,10.8 L83.1,8.7 C83.1,6.2 82.1,5.7 80.3,5.7 L78.8,5.7 L78.8,14 L80.3,14 L80.3,14 Z M80.5,28.6 C82.6,28.6 83.5,27.5 83.5,24.8 L83.5,22.5 C83.5,19.5 82.6,18.8 80.3,18.8 L78.8,18.8 L78.8,28.6 L80.5,28.6 L80.5,28.6 Z" id="Shape"></path>
                    <path d="M113.8,0.7 L113.8,24.9 C113.8,31.3 110.2,34.1 104.1,34.1 C98,34.1 94.5,31.2 94.5,24.8 L94.5,0.7 L101.6,0.7 L101.6,24.7 C101.6,27.4 102.2,28.4 104.1,28.4 C105.8,28.4 106.6,27.4 106.6,24.7 L106.6,0.7 L113.8,0.7 L113.8,0.7 Z" id="Shape"></path>
                    <path d="M117.5,24.9 L117.5,23.8 L124.4,23.8 L124.4,25.1 C124.4,27.8 125.1,28.6 126.8,28.6 C128.3,28.6 129,27.7 129,25.6 L129,25.2 C129,22.3 127.4,21.3 124.4,19.4 C120.1,16.7 117.9,14.2 117.9,8.8 L117.9,8.6 C117.9,3.1 121.1,0.1 126.8,0.1 C132.4,0.1 135.5,2.8 135.6,8.6 L135.6,9.6 L128.9,9.6 L128.9,8.5 C128.9,6.2 128,5.6 126.8,5.6 C125.5,5.6 124.8,6.3 124.8,8.2 L124.8,8.4 C124.8,10.7 125.8,11.6 128.7,13.5 C132.6,16 136,18 136,24.4 L136,25 C136,31 132.7,34 126.9,34 C121.1,34.1 117.6,31.5 117.5,24.9 L117.5,24.9 Z" id="Shape"></path>
                    <path d="M140.1,0.7 L147.2,0.7 L147.2,33.6 L140.1,33.6 L140.1,0.7 L140.1,0.7 Z" id="Shape"></path>
                    <path d="M152.1,0.7 L159.7,0.7 L165.3,18.3 L165.3,0.7 L171.5,0.7 L171.5,33.6 L164.8,33.6 L158.3,13.2 L158.3,33.6 L152.2,33.6 L152.2,0.7 L152.1,0.7 Z" id="Shape"></path>
                    <path d="M176.3,0.7 L191.2,0.7 L191.2,6.3 L183.4,6.3 L183.4,13.7 L189.6,13.7 L189.6,19 L183.4,19 L183.4,28 L191.7,28 L191.7,33.6 L176.3,33.6 L176.3,0.7 L176.3,0.7 Z" id="Shape"></path>
                    <path d="M194.9,24.9 L194.9,23.8 L201.8,23.8 L201.8,25.1 C201.8,27.8 202.5,28.6 204.2,28.6 C205.7,28.6 206.4,27.7 206.4,25.6 L206.4,25.2 C206.4,22.3 204.8,21.3 201.8,19.4 C197.5,16.7 195.3,14.2 195.3,8.8 L195.3,8.6 C195.3,3.1 198.5,0.1 204.2,0.1 C209.8,0.1 212.9,2.8 213,8.6 L213,9.6 L206.3,9.6 L206.3,8.5 C206.3,6.2 205.4,5.6 204.2,5.6 C202.9,5.6 202.2,6.3 202.2,8.2 L202.2,8.4 C202.2,10.7 203.2,11.6 206.1,13.5 C210,16 213.4,18 213.4,24.4 L213.4,25 C213.4,31 210.1,34 204.3,34 C198.5,34.1 194.9,31.5 194.9,24.9 L194.9,24.9 Z" id="Shape"></path>
                    <path d="M216.5,24.9 L216.5,23.8 L223.4,23.8 L223.4,25.1 C223.4,27.8 224.1,28.6 225.8,28.6 C227.3,28.6 228,27.7 228,25.6 L228,25.2 C228,22.3 226.4,21.3 223.4,19.4 C219.1,16.7 216.9,14.2 216.9,8.8 L216.9,8.6 C216.9,3.1 220.1,0.1 225.8,0.1 C231.4,0.1 234.5,2.8 234.6,8.6 L234.6,9.6 L227.9,9.6 L227.9,8.5 C227.9,6.2 227,5.6 225.8,5.6 C224.5,5.6 223.8,6.3 223.8,8.2 L223.8,8.4 C223.8,10.7 224.8,11.6 227.7,13.5 C231.6,16 235,18 235,24.4 L235,25 C235,31 231.7,34 225.9,34 C220.1,34.1 216.5,31.5 216.5,24.9 L216.5,24.9 Z" id="Shape"></path>
                </g>
                <g id="Group" transform="translate(49.000000, 58.000000)" fill="#FFFFFF">
                    <path d="M0.5,33.7 L0.5,28.2 C1.1,28.3 1.7,28.5 2.7,28.5 C4.5,28.5 5.5,27.7 5.5,25.4 L5.5,1.2 L12.6,1.2 L12.6,25.7 C12.6,31.4 9.7,34.4 4.3,34.4 C2.4,34.4 1.3,34.1 0.5,33.7 L0.5,33.7 Z" id="Shape"></path>
                    <path d="M16.8,24.8 L16.8,10.6 C16.8,3.8 21,0.7 26.8,0.7 C32.8,0.7 36.9,3.6 36.9,10.5 L36.9,24.5 C36.9,31.4 32.9,34.5 26.8,34.5 C20.7,34.6 16.8,31.5 16.8,24.8 L16.8,24.8 Z M29.7,24.7 L29.7,10.6 C29.7,7.7 28.8,6.5 26.8,6.5 C24.9,6.5 24,7.7 24,10.6 L24,24.7 C24,27.7 24.9,28.9 26.8,28.9 C28.8,28.9 29.7,27.7 29.7,24.7 L29.7,24.7 Z" id="Shape"></path>
                    <path d="M60.6,1.2 L60.6,25.4 C60.6,31.8 57,34.6 50.9,34.6 C44.8,34.6 41.3,31.7 41.3,25.3 L41.3,1.2 L48.4,1.2 L48.4,25.2 C48.4,27.9 49,28.9 50.9,28.9 C52.6,28.9 53.4,27.9 53.4,25.2 L53.4,1.2 L60.6,1.2 L60.6,1.2 Z" id="Shape"></path>
                    <path d="M65.2,1.2 L74.2,1.2 C81.1,1.2 83.7,3.9 83.7,9.4 L83.7,12.8 C83.7,16.5 82.5,18.3 80.3,19.3 L84.6,34.1 L77.2,34.1 L73.6,20.4 L72.3,20.4 L72.3,34.1 L65.2,34.1 L65.2,1.2 L65.2,1.2 Z M74,15.8 C75.9,15.8 76.8,15 76.8,12.6 L76.8,9.6 C76.8,7.4 76,6.6 74,6.6 L72.3,6.6 L72.3,15.8 L74,15.8 L74,15.8 Z" id="Shape"></path>
                    <path d="M88.2,1.2 L95.8,1.2 L101.4,18.8 L101.4,1.2 L107.6,1.2 L107.6,34.1 L100.9,34.1 L94.4,13.7 L94.4,34.1 L88.3,34.1 L88.3,1.2 L88.2,1.2 Z" id="Shape"></path>
                    <path d="M123.5,27.4 L118.3,27.4 L117.4,34.1 L110.9,34.1 L116.1,1.2 L126.3,1.2 L131.5,34.1 L124.3,34.1 L123.5,27.4 L123.5,27.4 Z M119,22.5 L122.9,22.5 L121,7.5 L119,22.5 L119,22.5 Z" id="Shape"></path>
                    <path d="M135,1.2 L142.1,1.2 L142.1,28.4 L149.5,28.4 L149.5,34.1 L135,34.1 L135,1.2 L135,1.2 Z" id="Shape"></path>
                    <path d="M152.4,25.5 L152.4,24.4 L159.3,24.4 L159.3,25.7 C159.3,28.4 160,29.2 161.7,29.2 C163.2,29.2 163.9,28.3 163.9,26.2 L163.9,25.8 C163.9,22.9 162.3,21.9 159.3,20 C155,17.3 152.8,14.8 152.8,9.4 L152.8,9.2 C152.8,3.7 156,0.7 161.7,0.7 C167.3,0.7 170.4,3.4 170.5,9.2 L170.5,10.2 L163.8,10.2 L163.8,9.1 C163.8,6.8 162.9,6.2 161.7,6.2 C160.4,6.2 159.7,6.9 159.7,8.8 L159.7,9 C159.7,11.3 160.7,12.2 163.6,14.1 C167.5,16.6 170.9,18.6 170.9,25 L170.9,25.6 C170.9,31.6 167.6,34.6 161.8,34.6 C156.1,34.6 152.5,32 152.4,25.5 L152.4,25.5 Z" id="Shape"></path>
                </g>
            </g>
        </g>
    </g>
</svg>